<svg width="1003" height="1006" viewBox="0 0 1003 1006" fill="none" xmlns="http://www.w3.org/2000/svg">
<g clip-path="url(#clip0_1_33)">
<path d="M501.5 1006C778.471 1006 1003 780.799 1003 503C1003 225.201 778.471 0 501.5 0C224.529 0 0 225.201 0 503C0 780.799 224.529 1006 501.5 1006Z" fill="#C2D5D8"/>
<path d="M909.306 795.597C909.063 794.999 908.851 794.386 908.577 793.797C908.083 792.422 907.574 791.07 906.955 789.765C906.461 788.382 905.952 787.046 905.333 785.741C904.839 784.35 904.33 783.006 903.711 781.709C903.217 780.334 902.708 778.99 902.089 777.685C901.595 776.294 901.086 774.958 900.467 773.653C899.981 772.286 899.464 770.934 898.845 769.629C898.359 768.246 897.842 766.902 897.223 765.597C896.737 764.222 896.22 762.87 895.601 761.566C895.115 760.198 894.598 758.846 893.979 757.542C893.493 756.166 892.976 754.822 892.357 753.518C891.879 752.15 891.369 750.814 890.75 749.517C890.264 748.126 889.747 746.774 889.12 745.454C888.634 744.078 888.117 742.735 887.498 741.43C887.012 740.047 886.495 738.703 885.876 737.406C885.39 736.023 884.873 734.687 884.254 733.382C883.768 731.999 883.251 730.655 882.632 729.358C882.146 727.975 881.629 726.623 881.01 725.318C880.524 723.943 880.007 722.599 879.388 721.294C878.902 719.911 878.385 718.575 877.766 717.27C877.28 715.887 876.771 714.543 876.144 713.238C875.658 711.855 875.149 710.511 874.522 709.206C874.036 707.823 873.519 706.487 872.908 705.182C872.414 703.799 871.897 702.447 871.286 701.151C870.792 699.775 870.283 698.431 869.664 697.127C869.17 695.743 868.661 694.399 868.042 693.095C867.556 691.727 867.054 690.407 866.435 689.102C865.942 687.711 865.432 686.351 864.805 685.039C864.312 683.664 863.802 682.32 863.183 681.015C862.69 679.639 862.18 678.288 861.561 676.983C861.068 675.6 860.558 674.256 859.939 672.951C859.446 671.576 858.936 670.232 858.317 668.927C857.824 667.536 857.314 666.2 856.695 664.895C856.202 663.528 855.692 662.176 855.073 660.871C854.579 659.488 854.07 658.144 853.451 656.847C852.957 655.472 852.448 654.128 851.829 652.823C851.335 651.44 850.826 650.088 850.207 648.784C849.713 647.408 849.204 646.064 848.585 644.76C848.099 643.384 847.582 642.04 846.963 640.736C846.477 639.352 845.96 638.001 845.341 636.696C844.855 635.328 844.338 633.977 843.719 632.672C843.233 631.289 842.716 629.945 842.097 628.648C841.619 627.28 841.11 625.944 840.49 624.655C840.005 623.256 839.487 621.904 838.861 620.6C838.375 619.217 837.858 617.873 837.239 616.568C836.753 615.193 836.236 613.849 835.617 612.544C835.131 611.169 834.613 609.817 833.994 608.512C833.509 607.129 832.991 605.785 832.372 604.48C831.887 603.105 831.377 601.761 830.75 600.456C830.265 599.065 829.755 597.729 829.128 596.424C828.642 595.041 828.125 593.689 827.506 592.4C827.02 591.017 826.503 589.673 825.892 588.369C825.398 586.985 824.881 585.641 824.27 584.345C823.776 582.969 823.259 581.617 822.648 580.313C822.154 578.929 821.637 577.585 821.026 576.289C820.532 574.913 820.023 573.569 819.404 572.265C818.91 570.881 818.401 569.53 817.782 568.225C817.296 566.857 816.795 565.537 816.176 564.248C815.682 562.849 815.173 561.49 814.546 560.177C814.052 558.794 813.543 557.442 812.924 556.153C812.43 554.77 811.921 553.434 811.302 552.129C810.808 550.738 810.299 549.394 809.68 548.097C809.186 546.722 808.677 545.378 808.058 544.073C807.564 542.682 807.055 541.346 806.435 540.041C805.942 538.674 805.432 537.322 804.813 536.017C804.32 534.642 803.81 533.298 803.191 531.993C802.698 530.618 802.188 529.258 801.569 527.954C801.084 526.586 800.566 525.234 799.947 523.93C799.461 522.546 798.944 521.202 798.325 519.898C797.839 518.522 797.322 517.178 796.703 515.874C796.217 514.483 795.7 513.146 795.081 511.842C794.595 510.474 794.078 509.122 793.459 507.818C792.981 506.45 792.472 505.114 791.853 503.825C791.367 502.434 790.85 501.082 790.223 499.77C789.737 498.387 789.22 497.043 788.601 495.746C788.115 494.37 787.598 493.026 786.979 491.722C786.493 490.346 785.984 489.002 785.357 487.698C784.871 486.315 784.362 484.971 783.735 483.666C783.249 482.291 782.732 480.947 782.113 479.642C781.627 478.259 781.11 476.915 780.491 475.618C780.005 474.243 779.488 472.899 778.869 471.594C778.383 470.211 777.866 468.867 777.247 467.57C776.761 466.195 776.244 464.851 775.632 463.546C775.139 462.163 774.622 460.819 774.01 459.522C773.517 458.147 773.007 456.803 772.388 455.498C771.895 454.115 771.385 452.771 770.766 451.474C770.273 450.099 769.771 448.755 769.144 447.45C768.658 446.082 768.157 444.746 767.538 443.45C767.044 442.058 766.535 440.707 765.908 439.394C765.414 438.019 764.905 436.675 764.286 435.37C763.792 433.987 763.283 432.643 762.664 431.346C762.17 429.971 761.661 428.627 761.042 427.322C760.548 425.939 760.039 424.595 759.42 423.298C758.926 421.923 758.417 420.579 757.798 419.274C752.415 404.035 738.02 392.969 720.906 392.969C710.257 392.969 700.627 397.26 693.567 404.176C693.386 402.714 692.893 401.315 691.945 400.16C691.764 398.69 691.279 397.291 690.323 396.136C690.142 394.666 689.656 393.26 688.701 392.104C688.52 390.635 688.034 389.236 687.078 388.08C686.898 386.611 686.412 385.212 685.456 384.056C685.276 382.587 684.79 381.188 683.834 380.032C683.654 378.563 683.168 377.164 682.212 376.008C682.032 374.539 681.546 373.14 680.598 371.984C680.41 370.515 679.924 369.116 678.976 367.96C678.788 366.491 678.302 365.092 677.354 363.936C677.166 362.467 676.688 361.068 675.732 359.912C675.544 358.443 675.066 357.044 674.11 355.888C673.922 354.419 673.444 353.012 672.488 351.856C672.3 350.387 671.822 348.996 670.874 347.84C670.694 346.371 670.208 344.964 669.252 343.808C669.064 342.339 668.586 340.94 667.63 339.784C667.442 338.315 666.964 336.916 666.008 335.76C665.82 334.291 665.342 332.892 664.386 331.736C664.198 330.267 663.72 328.868 662.764 327.712C662.576 326.235 662.098 324.844 661.142 323.688C660.953 322.219 660.475 320.82 659.519 319.664C659.331 318.195 658.846 316.796 657.897 315.64C657.717 314.171 657.231 312.764 656.275 311.609C656.087 310.139 655.609 308.74 654.653 307.585C654.465 306.115 653.987 304.716 653.031 303.561C652.843 302.091 652.365 300.692 651.409 299.537C651.229 298.067 650.743 296.668 649.787 295.513C649.607 294.043 649.121 292.644 648.165 291.489C647.985 290.019 647.499 288.628 646.551 287.472C646.379 286.003 645.885 284.596 644.929 283.441C644.749 281.971 644.263 280.572 643.307 279.417C643.127 277.947 642.641 276.548 641.685 275.393C641.505 273.923 641.019 272.524 640.063 271.369C639.883 269.899 639.397 268.492 638.441 267.337C638.261 265.867 637.775 264.468 636.819 263.313C636.639 261.843 636.153 260.444 635.197 259.289C635.016 257.819 634.531 256.42 633.575 255.265C633.395 253.795 632.909 252.396 631.953 251.241C631.772 249.771 631.287 248.372 630.338 247.217C630.15 245.747 629.672 244.348 628.716 243.193C628.528 241.723 628.05 240.324 627.094 239.169C626.906 237.699 626.428 236.3 625.472 235.145C625.284 233.675 624.806 232.276 623.85 231.121C623.67 229.651 623.184 228.252 622.236 227.097C622.056 225.627 621.57 224.22 620.614 223.065C620.426 221.595 619.948 220.196 618.992 219.041C618.804 217.571 618.326 216.172 617.37 215.017C617.182 213.547 616.704 212.148 615.748 210.993C615.56 209.523 615.082 208.124 614.126 206.969C613.938 205.499 613.46 204.1 612.504 202.945C612.198 200.532 610.913 198.268 608.625 197.019C604.832 194.936 600.06 196.335 597.992 200.147L577.031 238.626C554.369 226.806 528.746 220.063 501.5 220.063C474.254 220.063 448.631 226.806 426.001 238.563L405.04 200.084C402.955 196.28 398.199 194.857 394.406 196.956C390.614 199.039 389.211 203.809 391.288 207.621L392.157 209.232C392.314 210.05 392.486 210.875 392.91 211.653L393.779 213.264C393.936 214.082 394.108 214.907 394.532 215.685L395.401 217.296C395.55 218.113 395.731 218.939 396.154 219.717L397.023 221.328C397.172 222.145 397.353 222.97 397.776 223.749L398.645 225.36C398.794 226.177 398.975 227.002 399.398 227.78L400.268 229.392C400.416 230.209 400.597 231.034 401.02 231.812L401.874 233.384C402.023 234.217 402.203 235.05 402.634 235.836L403.504 237.44C403.653 238.257 403.833 239.09 404.256 239.868L405.126 241.479C405.275 242.297 405.455 243.122 405.878 243.9L406.748 245.511C406.897 246.329 407.077 247.154 407.5 247.932L408.299 249.378C365.257 279.094 336.945 328.718 336.945 385.109H338.701C338.669 386.453 338.567 387.782 338.567 389.133H340.323C340.291 390.477 340.189 391.806 340.189 393.157H341.945C341.913 394.501 341.811 395.83 341.811 397.181H343.567C343.535 398.4 343.449 399.602 343.449 400.82H336.945V463.963C336.89 463.852 336.828 463.758 336.781 463.648C336.295 462.265 335.778 460.921 335.167 459.624C334.673 458.249 334.156 456.905 333.545 455.6C333.051 454.217 332.542 452.873 331.922 451.576C331.429 450.201 330.927 448.857 330.3 447.552C329.815 446.185 329.313 444.849 328.694 443.552C328.2 442.161 327.691 440.809 327.064 439.496C326.571 438.121 326.061 436.777 325.442 435.472C324.948 434.089 324.439 432.745 323.82 431.448C323.326 430.073 322.817 428.729 322.198 427.424C321.704 426.041 321.195 424.697 320.576 423.4C320.082 422.025 319.573 420.681 318.954 419.376C313.602 404.035 299.207 392.969 282.094 392.969C260.451 392.969 242.914 410.566 242.914 432.266V589.453C242.914 595.528 244.403 601.234 246.871 606.367C247.365 607.75 247.874 609.094 248.493 610.398C248.987 611.782 249.496 613.126 250.115 614.422C250.609 615.798 251.118 617.15 251.737 618.454C252.231 619.838 252.74 621.181 253.359 622.478C253.845 623.854 254.362 625.198 254.981 626.502C255.459 627.87 255.969 629.206 256.588 630.495C257.074 631.878 257.591 633.246 258.218 634.55C258.703 635.941 259.213 637.285 259.84 638.59C260.326 639.973 260.843 641.325 261.462 642.614C261.948 643.997 262.465 645.333 263.084 646.638C263.57 648.029 264.087 649.373 264.706 650.67C265.192 652.045 265.709 653.389 266.328 654.694C266.814 656.085 267.331 657.421 267.95 658.726C268.436 660.093 268.953 661.445 269.572 662.75C270.058 664.133 270.575 665.477 271.194 666.774C271.68 668.149 272.197 669.493 272.816 670.798C273.302 672.181 273.811 673.517 274.438 674.822C274.924 676.213 275.433 677.557 276.06 678.861C276.546 680.237 277.063 681.581 277.682 682.885C278.168 684.269 278.685 685.62 279.296 686.909C279.782 688.277 280.284 689.621 280.903 690.902C281.396 692.301 281.906 693.653 282.533 694.965C283.026 696.341 283.536 697.692 284.155 698.997C284.648 700.38 285.158 701.716 285.777 703.021C286.27 704.396 286.78 705.74 287.399 707.045C287.892 708.42 288.402 709.764 289.021 711.069C289.514 712.452 290.024 713.804 290.643 715.109C291.136 716.476 291.646 717.828 292.265 719.133C292.758 720.516 293.268 721.86 293.887 723.165C294.381 724.54 294.89 725.892 295.509 727.197C296.003 728.58 296.512 729.924 297.131 731.221C297.625 732.596 298.134 733.94 298.753 735.245C299.247 736.628 299.756 737.98 300.375 739.269C300.869 740.652 301.378 741.988 301.997 743.293C302.491 744.684 303 746.028 303.619 747.324C304.097 748.692 304.606 750.02 305.225 751.317C305.711 752.708 306.228 754.076 306.855 755.38C307.341 756.764 307.85 758.107 308.477 759.412C308.963 760.795 309.48 762.139 310.099 763.444C310.585 764.827 311.102 766.179 311.721 767.468C312.207 768.851 312.724 770.187 313.343 771.492C313.829 772.883 314.346 774.227 314.966 775.524C315.451 776.899 315.969 778.243 316.588 779.548C317.073 780.939 317.591 782.275 318.21 783.58C318.695 784.947 319.205 786.299 319.832 787.604C320.317 788.979 320.827 790.323 321.454 791.636C321.939 793.011 322.457 794.363 323.076 795.667C323.562 797.035 324.071 798.387 324.698 799.691C325.184 801.075 325.701 802.419 326.312 803.723C326.806 805.099 327.323 806.443 327.934 807.747C328.42 809.123 328.929 810.459 329.54 811.748C330.034 813.131 330.543 814.491 331.17 815.803C331.664 817.186 332.173 818.53 332.792 819.827C333.286 821.21 333.795 822.546 334.414 823.851C334.908 825.234 335.417 826.57 336.036 827.875C336.53 829.266 337.039 830.61 337.658 831.915C338.152 833.29 338.661 834.634 339.28 835.939C339.774 837.322 340.283 838.658 340.902 839.963C341.396 841.354 341.905 842.698 342.525 844.003C343.018 845.386 343.527 846.73 344.147 848.027C344.64 849.41 345.15 850.746 345.769 852.051C346.262 853.434 346.772 854.786 347.391 856.082C347.884 857.458 348.394 858.802 349.013 860.106C349.506 861.482 350.016 862.834 350.635 864.138C351.121 865.522 351.638 866.858 352.257 868.162C352.743 869.546 353.26 870.89 353.879 872.194C354.357 873.562 354.866 874.89 355.485 876.187C355.971 877.578 356.488 878.93 357.115 880.25C357.601 881.641 358.118 882.985 358.737 884.282C359.223 885.657 359.74 887.001 360.359 888.306C360.845 889.697 361.362 891.033 361.981 892.338C362.467 893.705 362.984 895.057 363.603 896.362C364.089 897.737 364.598 899.081 365.225 900.386C365.711 901.769 366.22 903.121 366.847 904.425C367.333 905.793 367.85 907.145 368.469 908.449C368.955 909.825 369.472 911.169 370.091 912.473C370.577 913.849 371.086 915.193 371.713 916.497C372.199 917.881 372.716 919.233 373.335 920.537C373.821 921.905 374.338 923.257 374.957 924.561C375.443 925.944 375.96 927.288 376.572 928.585C377.065 929.961 377.582 931.305 378.194 932.609C378.68 933.977 379.181 935.313 379.8 936.602C380.294 938.001 380.803 939.353 381.43 940.665C381.924 942.04 382.433 943.384 383.052 944.697C383.546 946.08 384.055 947.416 384.674 948.721C385.168 950.104 385.677 951.448 386.296 952.753C386.79 954.128 387.299 955.472 387.918 956.777C388.412 958.168 388.921 959.504 389.54 960.809C390.034 962.192 390.543 963.544 391.162 964.833C391.656 966.216 392.165 967.56 392.784 968.864C393.278 970.248 393.787 971.592 394.406 972.889C394.9 974.264 395.409 975.616 396.028 976.92C396.522 978.296 397.031 979.64 397.65 980.952C398.144 982.328 398.653 983.672 399.272 984.976C399.766 986.352 400.275 987.703 400.894 989.008C401.38 990.376 401.897 991.727 402.516 993.032C402.94 994.242 403.41 995.421 403.95 996.577C435.545 1002.66 468.127 1006 501.5 1006C669.62 1006 818.315 922.942 909.306 795.597Z" fill="#B7C9CC"/>
<path d="M336.945 636.609C336.945 662.545 358.102 683.766 383.961 683.766H399.633V762.359C399.633 784.059 417.17 801.656 438.812 801.656C460.455 801.656 477.992 784.059 477.992 762.359V683.766H525.008V762.359C525.008 784.059 542.545 801.656 564.188 801.656C585.83 801.656 603.367 784.059 603.367 762.359V683.766H619.039C644.898 683.766 666.055 662.545 666.055 636.609V400.828H336.945V636.609Z" fill="#649937"/>
<path d="M720.906 392.969C699.263 392.969 681.727 410.566 681.727 432.266V589.453C681.727 611.153 699.263 628.75 720.906 628.75C742.549 628.75 760.086 611.153 760.086 589.453V432.266C760.086 410.566 742.549 392.969 720.906 392.969Z" fill="#649937"/>
<path d="M282.094 392.969C260.451 392.969 242.914 410.566 242.914 432.266V589.453C242.914 611.153 260.451 628.75 282.094 628.75C303.737 628.75 321.273 611.153 321.273 589.453V432.266C321.273 410.566 303.737 392.969 282.094 392.969Z" fill="#649937"/>
<path d="M590.563 246.454L611.712 207.621C613.789 203.809 612.386 199.039 608.594 196.956C604.801 194.873 600.029 196.272 597.96 200.084L576.999 238.563C554.369 226.806 528.746 220.063 501.5 220.063C474.254 220.063 448.631 226.806 426.001 238.563L405.04 200.084C402.955 196.28 398.199 194.857 394.406 196.956C390.614 199.039 389.211 203.809 391.288 207.621L412.437 246.454C367.059 275.84 336.945 326.903 336.945 385.109H666.055C666.055 326.903 635.941 275.84 590.563 246.454ZM430.977 330.094C422.326 330.094 415.305 323.052 415.305 314.375C415.305 305.698 422.326 298.656 430.977 298.656C439.627 298.656 446.648 305.698 446.648 314.375C446.648 323.052 439.627 330.094 430.977 330.094ZM572.023 330.094C563.373 330.094 556.352 323.052 556.352 314.375C556.352 305.698 563.373 298.656 572.023 298.656C580.674 298.656 587.695 305.698 587.695 314.375C587.695 323.052 580.674 330.094 572.023 330.094Z" fill="#649937"/>
<path d="M501.5 683.766H525.008V762.359C525.008 784.059 542.545 801.656 564.188 801.656C585.83 801.656 603.367 784.059 603.367 762.359V683.766H619.039C644.898 683.766 666.055 662.545 666.055 636.609V400.828H501.5V683.766Z" fill="#5C8C32"/>
<path d="M590.563 246.454L611.712 207.621C613.789 203.809 612.386 199.039 608.594 196.956C604.801 194.873 600.029 196.272 597.96 200.084L576.999 238.563C554.369 226.806 528.746 220.063 501.5 220.063V385.109H666.055C666.055 326.903 635.941 275.84 590.563 246.454ZM572.023 330.094C563.373 330.094 556.352 323.052 556.352 314.375C556.352 305.698 563.373 298.656 572.023 298.656C580.674 298.656 587.695 305.698 587.695 314.375C587.695 323.052 580.674 330.094 572.023 330.094Z" fill="#5C8C32"/>
<path d="M720.906 392.969C699.263 392.969 681.727 410.566 681.727 432.266V589.453C681.727 611.153 699.263 628.75 720.906 628.75C742.549 628.75 760.086 611.153 760.086 589.453V432.266C760.086 410.566 742.549 392.969 720.906 392.969Z" fill="#5C8C32"/>
<path d="M871.853 462.031C856.45 446.246 835.683 437.269 813.96 437.006C792.238 436.743 771.271 445.214 755.512 460.621C754.638 461.415 753.938 462.392 753.459 463.486C752.979 464.58 752.731 465.767 752.731 466.967C752.731 468.168 752.979 469.355 753.459 470.449C753.938 471.543 754.638 472.52 755.512 473.314L765.093 484.597C766.422 486.191 768.279 487.219 770.303 487.48C772.328 487.74 774.373 487.215 776.043 486.007C785.662 477.404 798.205 473.091 810.911 474.017C823.617 474.942 835.445 481.031 843.794 490.944C852.144 500.856 856.329 513.78 855.431 526.872C854.533 539.965 848.624 552.153 839.004 560.756C773.305 628.454 684.338 438.055 484.504 536.78C481.072 538.418 478.006 540.771 475.501 543.691C472.996 546.611 471.104 550.034 469.947 553.744C468.79 557.454 468.391 561.372 468.776 565.249C469.161 569.126 470.322 572.879 472.185 576.27L506.404 636.916C510.103 643.197 516.034 647.742 522.936 649.586C529.837 651.43 537.165 650.426 543.359 646.789H544.728L559.784 638.326C576.732 627.524 592.758 615.256 607.689 601.657C609.195 600.269 611.144 599.502 613.164 599.502C615.184 599.502 617.133 600.269 618.639 601.657C619.513 602.451 620.213 603.428 620.692 604.522C621.172 605.616 621.419 606.803 621.419 608.004C621.419 609.204 621.172 610.391 620.692 611.485C620.213 612.58 619.513 613.556 618.639 614.35C602.92 629.025 585.973 642.24 567.996 653.84L552.94 662.303C546.672 665.947 539.607 667.888 532.409 667.944C524.654 668.016 517.02 665.964 510.287 661.999C503.553 658.035 497.962 652.299 494.085 645.378L459.867 583.745C398.274 640.16 359.95 717.73 380.659 828.105C381.059 830.029 382.099 831.75 383.598 832.97C385.097 834.19 386.961 834.834 388.871 834.79H425.101C427.107 834.78 429.039 834.014 430.534 832.637C432.029 831.26 432.984 829.367 433.218 827.315C435.578 814.39 442.247 802.721 452.072 794.325C461.896 785.929 474.259 781.334 487.022 781.334C499.786 781.334 512.149 785.929 521.973 794.325C531.798 802.721 538.467 814.39 540.827 827.315C541.119 829.261 542.061 831.042 543.49 832.35C544.919 833.657 546.746 834.411 548.656 834.48H584.517C586.426 834.403 588.25 833.643 589.674 832.33C591.098 831.017 592.033 829.234 592.318 827.287C594.694 814.378 601.367 802.728 611.187 794.347C621.007 785.966 633.358 781.38 646.109 781.38C658.86 781.38 671.212 785.966 681.032 794.347C690.852 802.728 697.525 814.378 699.9 827.287C700.214 829.208 701.162 830.959 702.583 832.243C704.005 833.528 705.813 834.268 707.702 834.338H743.289C745.354 834.27 747.319 833.401 748.79 831.906C750.262 830.41 751.132 828.398 751.228 826.271C752.596 774.088 764.915 714.853 804.197 685.235C938.332 582.279 902.745 493.426 871.812 461.975L871.853 462.031ZM734.981 617.171L708.975 604.478C708.801 601.541 709.373 598.609 710.634 595.97C711.896 593.331 713.803 591.076 716.167 589.428C718.532 587.78 721.273 586.796 724.12 586.572C726.966 586.348 729.82 586.893 732.4 588.152C734.98 589.411 737.197 591.342 738.833 593.753C740.468 596.164 741.465 598.973 741.725 601.903C741.986 604.832 741.501 607.781 740.318 610.459C739.135 613.136 737.296 615.449 734.981 617.171Z" fill="#02303A"/>
<path d="M925 963H716.231V736.053H820.615V849.526" fill="#0099DD"/>
<path d="M925 736.053H820.615L716.231 857.632V963" fill="#FF8800"/>
</g>
<defs>
<clipPath id="clip0_1_33">
<rect width="1003" height="1006" fill="white"/>
</clipPath>
</defs>
</svg>
