<svg version="1.1" id="Layer_1" xmlns="http://www.w3.org/2000/svg" xmlns:xlink="http://www.w3.org/1999/xlink" x="0px" y="0px"
	 width="700px" height="700px" viewBox="0 0 700 700" enable-background="new 0 0 700 700" xml:space="preserve">
<path fill="#000000" opacity="0.000000" stroke="none" 
	d="
M701.000000,260.000000 
	C701.000000,407.333344 701.000000,554.166687 701.000000,701.000000 
	C467.666656,701.000000 234.333328,701.000000 1.000000,701.000000 
	C1.000000,467.666656 1.000000,234.333328 1.000000,1.000000 
	C234.333328,1.000000 467.666656,1.000000 701.000000,1.000000 
	C701.000000,87.166664 701.000000,173.333328 701.000000,260.000000 
M188.000000,266.000000 
	C188.000000,266.000000 188.001785,266.002991 188.938828,265.991455 
	C198.522781,265.991455 208.106750,265.991455 218.456421,265.991455 
	C217.729935,263.947601 217.370346,262.589630 216.783051,261.338531 
	C212.169907,251.511353 207.638153,241.642914 202.833374,231.909592 
	C198.369141,222.866150 193.599396,213.973495 188.894943,204.360596 
	C188.834183,203.927505 188.773422,203.494400 188.697815,202.491058 
	C188.112717,202.650742 187.527603,202.810410 186.354263,203.377914 
	C181.425690,214.933228 176.409454,226.452194 171.596954,238.055649 
	C167.908707,246.948410 164.477661,255.947830 160.351089,265.349426 
	C162.231766,265.829681 164.112442,266.309906 166.926926,266.877991 
	C173.287094,266.843567 179.647263,266.809143 186.600662,266.916992 
	C187.068146,266.611969 187.535629,266.306946 188.000000,266.000000 
M432.254639,362.956085 
	C429.476013,357.484253 424.683380,357.694427 419.255096,358.193237 
	C427.494202,368.773163 432.494904,379.630035 429.151398,393.153534 
	C425.735992,406.967773 416.082520,414.455170 403.032166,419.849426 
	C406.470276,428.885681 409.478912,437.551239 413.067322,445.969696 
	C415.646729,452.021027 419.224548,457.639954 421.961792,463.632294 
	C427.784546,476.379395 433.283020,489.274231 439.043030,502.050537 
	C443.271179,511.429016 447.777588,520.681824 452.030396,530.049438 
	C461.514374,550.939758 470.932861,571.859924 480.347290,592.781738 
	C486.035919,605.423767 491.593811,618.125122 497.361847,630.730530 
	C499.486633,635.374023 502.046082,639.818665 505.121735,645.726318 
	C507.772064,640.537109 509.388153,636.682129 511.583710,633.191650 
	C522.103455,616.467896 532.889954,599.911682 543.367981,583.162170 
	C552.727295,568.200989 561.748230,553.028625 571.027954,538.017151 
	C579.964233,523.561279 589.111206,509.235565 598.034668,494.771912 
	C605.986511,481.883148 613.676941,468.833130 621.632202,455.946564 
	C631.353699,440.199036 641.193970,424.524353 651.056580,408.864563 
	C656.078552,400.890747 661.395325,393.100006 666.307556,385.060760 
	C668.300598,381.799042 669.571655,378.096222 671.487305,373.902008 
	C657.895752,373.225830 645.534180,372.622040 633.174805,371.977325 
	C632.040039,371.918152 630.923767,371.461090 629.790771,371.421814 
	C623.857422,371.216064 617.882446,369.823120 611.825500,371.178833 
	C607.707581,370.456909 603.615723,369.421570 599.466492,369.075439 
	C589.425354,368.237793 579.364746,367.456207 569.297424,367.179077 
	C563.604736,367.022369 557.652466,365.052399 553.629578,372.724579 
	C547.242554,384.905487 539.296692,396.268311 532.025146,407.986420 
	C527.558838,415.183746 523.120239,422.398254 518.175354,430.404724 
	C513.903015,421.340271 509.906860,413.054626 506.102295,404.681915 
	C504.820679,401.861511 504.025818,398.819977 503.939362,395.974457 
	C507.270721,395.980804 510.602661,395.950470 513.933350,395.999939 
	C527.095642,396.195404 536.198914,389.413116 542.980347,378.891174 
	C550.330994,367.486145 552.387878,354.524689 552.874878,341.354248 
	C553.179260,333.120789 552.595642,324.820923 551.892456,316.595154 
	C551.397339,310.802704 550.525146,304.940704 548.904053,299.377075 
	C547.500732,294.560944 545.943481,290.068359 548.272217,285.605713 
	C549.660583,285.719513 551.070923,286.219177 552.214966,285.863190 
	C557.495605,284.219971 562.879639,282.730560 567.897705,280.459442 
	C577.774719,275.989227 587.908936,271.795288 597.045776,266.066071 
	C605.706787,260.635284 613.784485,253.952118 621.083008,246.767609 
	C627.481995,240.468567 631.833862,231.802612 631.554077,222.905396 
	C631.337280,216.011124 628.384766,208.518097 624.594666,202.608261 
	C620.582458,196.351990 614.564758,191.121521 608.649841,186.414642 
	C601.929565,181.066849 594.784729,175.866821 587.049622,172.267731 
	C574.578857,166.465149 561.448608,162.087646 548.680786,156.901764 
	C547.583923,156.456253 546.314575,154.354675 546.477722,153.216171 
	C547.812500,143.901672 549.909912,134.681671 550.934753,125.340698 
	C553.053223,106.032440 553.451416,86.943275 544.459595,68.697853 
	C538.672424,56.955215 526.646179,47.804169 513.170532,47.923592 
	C505.738647,47.989452 498.788177,49.218723 491.622589,51.458069 
	C481.166992,54.725582 471.469086,59.447075 462.532471,65.309555 
	C452.490448,71.897186 443.467468,80.039665 434.013123,87.520844 
	C431.291504,89.674469 428.275452,90.956772 425.255371,88.603340 
	C421.584564,85.742844 418.406525,82.253151 414.758118,79.359993 
	C409.783539,75.415176 404.823883,71.346092 399.398376,68.097656 
	C388.536285,61.594181 377.834900,55.128796 365.348297,51.305779 
	C352.618073,47.408169 340.780640,46.759613 328.928864,52.218239 
	C324.507629,54.254524 319.657867,57.438591 317.322510,61.449520 
	C313.609955,67.825684 310.478424,74.584976 308.458282,82.110382 
	C305.671844,92.490387 306.369965,102.639557 305.923004,112.946533 
	C305.352539,126.101982 309.000427,138.632523 311.167786,151.362137 
	C312.023438,156.387451 310.143555,157.877380 305.982880,159.066483 
	C299.788574,160.836792 293.556610,162.676132 287.651642,165.210571 
	C279.010498,168.919388 270.179230,172.531464 262.270050,177.518661 
	C250.271622,185.084412 239.322037,193.702789 231.527664,206.410645 
	C223.061554,220.213699 227.746750,234.904358 234.743347,244.035812 
	C242.092575,253.627472 251.895157,260.752869 262.334259,266.544952 
	C277.249115,274.820465 292.864594,281.677429 309.439026,286.165405 
	C310.915741,286.565277 312.792877,289.076752 312.785736,290.599548 
	C312.771881,293.539185 311.412109,296.447815 310.847076,299.414398 
	C309.490784,306.535217 308.221893,313.674011 307.055939,320.828094 
	C306.899506,321.788116 307.217346,323.447723 307.865875,323.817078 
	C312.557098,326.489044 317.389893,328.912476 322.692902,331.683716 
	C322.832855,329.693665 323.067627,328.569519 322.964661,327.477234 
	C321.931122,316.511749 325.044678,306.078064 327.020905,295.501526 
	C327.437469,293.271973 328.290009,291.313202 331.196991,292.056305 
	C334.632324,292.934448 338.009491,294.090607 341.482300,294.762360 
	C351.010101,296.605377 360.604218,299.759552 370.116791,299.573181 
	C380.093994,299.377716 385.329071,304.397705 390.656036,311.056610 
	C395.297485,316.858582 400.288055,322.381378 405.127563,328.024780 
	C408.424042,331.868866 411.832001,335.625305 414.949127,339.609497 
	C415.705017,340.575714 416.203369,342.922180 415.632874,343.543091 
	C413.180908,346.211731 410.286407,348.473724 407.404541,351.014893 
	C412.279083,353.563599 416.487579,358.106415 422.935852,355.995300 
	C427.600403,354.468170 432.235779,353.155945 435.983734,357.915039 
	C436.054932,358.005432 436.302124,357.964233 436.467773,357.972290 
	C444.712006,358.372711 452.956299,358.771851 461.659637,359.193329 
	C454.531219,353.328308 448.016876,347.968567 441.314423,342.454010 
	C444.491730,338.426605 447.038910,334.975586 449.815826,331.720551 
	C457.496338,322.717590 465.234192,313.762543 473.045471,304.872986 
	C474.519745,303.195190 476.244568,301.018036 478.184509,300.597687 
	C485.335999,299.048157 492.622925,298.117157 499.865509,296.996399 
	C507.569427,295.804199 515.398438,295.154663 522.955994,293.356873 
	C530.516296,291.558441 530.945984,292.894440 531.805176,299.348907 
	C533.291199,310.512329 535.659607,321.692383 535.709656,332.874207 
	C535.757385,343.541351 533.860840,354.324768 531.816101,364.862457 
	C529.893372,374.771179 522.286133,380.223511 512.125061,379.917389 
	C506.817505,379.757538 501.537628,378.680634 495.419800,377.914551 
	C496.865662,381.392822 498.023071,384.177155 498.429382,387.102325 
	C497.952271,386.490173 497.327087,385.943787 497.021240,385.255493 
	C494.347717,379.238464 491.950226,373.085144 488.980225,367.220703 
	C487.926117,365.139374 485.721558,362.612305 483.692749,362.251068 
	C478.214478,361.275604 472.549103,361.343231 466.956635,361.019409 
	C460.960938,360.672272 454.961426,360.387085 448.967896,360.007172 
	C443.506378,359.660950 438.050598,359.224121 432.230072,358.800934 
	C432.605103,360.772552 432.815979,361.881134 432.254639,362.956085 
M186.012711,297.145264 
	C174.352936,297.134308 162.692841,297.167053 151.033600,297.083496 
	C147.882111,297.060944 146.085800,297.894440 144.812134,301.278992 
	C139.683746,314.906891 134.156357,328.387421 128.568802,341.836182 
	C127.874901,343.506348 126.010124,345.782562 124.566895,345.874298 
	C113.990082,346.546722 103.383156,346.763397 92.783386,347.030975 
	C91.620247,347.060364 90.442307,346.503174 89.019890,346.156830 
	C92.321526,338.702271 95.346169,331.792389 98.435501,324.911621 
	C113.276024,291.857727 128.123505,258.806946 142.989777,225.764618 
	C151.942612,205.865738 160.936005,185.985092 169.908035,166.094833 
	C175.621506,153.428513 181.329254,140.759628 187.715195,128.291153 
	C190.167053,132.605972 192.899765,136.788086 195.013809,141.262512 
	C199.791046,151.373611 204.169174,161.672638 208.887390,171.812500 
	C212.884140,180.401840 217.120560,188.879898 221.271072,197.397369 
	C223.014297,200.974747 224.809464,204.526825 226.577362,208.083038 
	C229.206314,204.587189 231.313492,201.743469 233.463730,198.932724 
	C246.459183,181.945251 264.496613,172.182007 283.681335,164.179306 
	C290.780090,161.218124 298.130066,158.857681 305.373138,156.244644 
	C308.181671,155.231430 309.423584,154.122971 308.409912,150.454422 
	C306.539948,143.686768 305.740112,136.623428 304.453552,129.455551 
	C298.342163,127.392212 291.969025,125.309364 285.644470,123.088219 
	C277.241150,120.137047 268.932373,116.907143 260.480499,114.106171 
	C248.387848,110.098633 236.146317,106.537590 224.074631,102.470490 
	C214.511063,99.248413 205.151321,95.423775 195.604401,92.148407 
	C192.898422,91.220039 189.853317,91.280098 186.142487,90.985001 
	C183.904205,91.436707 181.576340,91.633408 179.442688,92.382965 
	C168.494781,96.229012 157.618362,100.278305 146.676727,104.142647 
	C126.661201,111.211670 106.589500,118.122330 86.594307,125.248009 
	C70.601196,130.947464 54.751209,137.055038 38.698872,142.577988 
	C33.778088,144.271042 30.762362,145.254761 31.770815,152.003876 
	C34.222523,168.412018 35.278675,185.024063 37.130314,201.527802 
	C38.938934,217.648087 41.107635,233.727707 42.981476,249.841080 
	C44.139477,259.798889 45.028877,269.787781 46.063751,279.760132 
	C46.725605,286.137939 47.374439,292.518005 48.131187,298.884918 
	C50.069645,315.194244 52.161385,331.486237 53.957581,347.810913 
	C54.321941,351.122437 55.460949,353.208679 58.440601,354.767609 
	C68.928902,360.255219 79.309181,365.949310 90.024864,371.723724 
	C92.021072,368.624634 93.669380,365.392761 95.933556,362.673737 
	C103.453941,353.642517 112.932083,349.377075 124.989372,349.789368 
	C131.633163,350.016541 137.043961,352.527863 142.583755,355.319214 
	C143.323761,355.692047 143.517807,357.148407 143.236450,358.006104 
	C130.643753,350.088409 118.100304,349.560608 105.056274,357.342926 
	C93.867928,364.018097 86.156479,382.451965 91.279831,394.221710 
	C95.381393,403.644073 100.898308,412.367798 111.943230,415.514252 
	C114.585083,416.266876 117.097519,417.356384 116.228371,421.608521 
	C115.374870,425.784119 116.027023,430.268433 116.026680,434.617279 
	C116.024864,457.943024 116.065445,481.268982 115.939796,504.594055 
	C115.931015,506.224548 115.156914,508.635468 113.953117,509.338684 
	C108.826332,512.333435 103.488358,514.695923 99.171036,519.186157 
	C94.939369,523.587219 92.498108,528.648621 91.095062,534.239441 
	C88.003609,546.557983 91.846176,557.015564 101.027626,565.397339 
	C112.334389,575.719360 125.990860,578.248230 140.864868,569.009277 
	C143.716553,567.237915 146.392380,562.147095 151.732727,565.796570 
	C157.214401,569.542664 163.367783,572.291077 169.124542,575.651978 
	C187.533020,586.399231 205.876999,597.257019 224.294632,607.988525 
	C226.587051,609.324280 226.904266,610.480408 226.589798,613.324341 
	C226.009323,618.573853 226.092804,624.197327 227.426804,629.262756 
	C228.491043,633.303894 231.750809,636.796265 234.166061,640.446106 
	C239.641830,648.720947 247.792038,652.293274 257.322845,652.930725 
	C265.489014,653.476868 272.221008,650.661865 278.893829,645.439270 
	C284.435760,641.101807 288.731232,636.395691 290.232758,629.984985 
	C291.534576,624.426758 290.729095,618.403015 291.262726,612.622681 
	C291.468231,610.396362 292.162079,607.231079 293.723297,606.276917 
	C302.517426,600.902283 311.671967,596.121033 320.649658,591.042175 
	C334.758453,583.060608 348.958893,575.226196 362.834351,566.854980 
	C367.594360,563.983215 370.753357,563.546753 375.318268,567.466187 
	C384.748566,575.563049 395.736389,576.996826 407.213074,571.965149 
	C412.086273,569.828552 416.540527,567.202820 420.060577,562.705200 
	C423.919342,557.774902 427.176086,552.571533 427.807892,546.572937 
	C428.887360,536.324890 426.336304,526.637817 418.813538,519.205872 
	C415.674255,516.104431 411.219513,514.325134 407.335571,511.990021 
	C404.435883,510.246674 401.793671,508.836609 401.854065,504.447510 
	C402.117737,485.290710 401.973053,466.128174 401.966400,446.967743 
	C401.965027,442.969727 402.023041,438.967712 401.869415,434.974670 
	C401.679413,430.035522 401.026672,425.096069 401.167511,420.173737 
	C401.208252,418.749969 403.015228,416.693604 404.481873,416.113037 
	C410.570862,413.702667 415.852112,410.329773 420.147675,405.349335 
	C428.285583,395.913940 429.281891,384.923340 425.701477,373.790375 
	C422.664795,364.348206 415.936768,357.956696 406.117676,354.366516 
	C395.707428,350.560211 386.365265,350.981110 377.236328,357.259521 
	C373.652313,359.724426 370.368744,362.999146 365.250366,359.805969 
	C357.490479,354.964752 349.449921,350.571686 341.505371,346.028809 
	C334.562927,342.058960 327.499573,338.292450 320.653961,334.163635 
	C314.278595,330.318420 308.119934,326.113953 302.445587,321.430847 
	C303.295502,320.047455 304.620300,318.757751 304.914856,317.264771 
	C306.357819,309.952362 307.622314,302.600372 308.740295,295.230560 
	C309.134247,292.633423 310.221466,289.522186 306.377502,288.196899 
	C298.901306,285.619232 291.434265,283.014984 284.164307,280.491455 
	C284.164307,281.532532 284.164307,282.686096 283.675507,283.237762 
	C282.729187,282.610626 281.670135,282.103607 280.853943,281.337799 
	C272.575195,273.570129 256.054840,270.420532 246.238632,275.443756 
	C233.074936,282.179993 222.861038,297.053101 226.714874,313.410370 
	C227.026306,314.732117 226.018768,317.107391 224.872238,317.886230 
	C221.812500,319.964752 218.342682,321.439545 214.506302,322.518402 
	C217.061707,320.806122 219.647079,319.136200 222.157898,317.360840 
	C223.169601,316.645447 224.777924,315.732544 224.816757,314.852264 
	C225.061310,309.309753 224.940567,303.751129 224.940567,298.005310 
	C217.653458,298.005310 211.184860,298.099579 204.720352,297.977600 
	C198.788818,297.865692 192.861694,297.520569 186.012711,297.145264 
M262.299133,270.067657 
	C259.549377,268.021301 256.799652,265.974945 254.049911,263.928589 
	C253.856567,264.157532 253.663223,264.386475 253.469879,264.615417 
	C254.563599,267.065704 255.657333,269.515961 256.981567,272.482666 
	C258.921722,271.873108 260.675323,271.322174 262.299133,270.067657 
z"/>
<path fill="#E436AA" opacity="1.000000" stroke="none" 
	d="
M301.865845,322.067627 
	C308.119934,326.113953 314.278595,330.318420 320.653961,334.163635 
	C327.499573,338.292450 334.562927,342.058960 341.505371,346.028809 
	C349.449921,350.571686 357.490479,354.964752 365.250366,359.805969 
	C370.368744,362.999146 373.652313,359.724426 377.236328,357.259521 
	C386.365265,350.981110 395.707428,350.560211 406.117676,354.366516 
	C415.936768,357.956696 422.664795,364.348206 425.701477,373.790375 
	C429.281891,384.923340 428.285583,395.913940 420.147675,405.349335 
	C415.852112,410.329773 410.570862,413.702667 404.481873,416.113037 
	C403.015228,416.693604 401.208252,418.749969 401.167511,420.173737 
	C401.026672,425.096069 401.679413,430.035522 401.869415,434.974670 
	C402.023041,438.967712 401.965027,442.969727 401.966400,446.967743 
	C401.973053,466.128174 402.117737,485.290710 401.854065,504.447510 
	C401.793671,508.836609 404.435883,510.246674 407.335571,511.990021 
	C411.219513,514.325134 415.674255,516.104431 418.813538,519.205872 
	C426.336304,526.637817 428.887360,536.324890 427.807892,546.572937 
	C427.176086,552.571533 423.919342,557.774902 420.060577,562.705200 
	C416.540527,567.202820 412.086273,569.828552 407.213074,571.965149 
	C395.736389,576.996826 384.748566,575.563049 375.318268,567.466187 
	C370.753357,563.546753 367.594360,563.983215 362.834351,566.854980 
	C348.958893,575.226196 334.758453,583.060608 320.649658,591.042175 
	C311.671967,596.121033 302.517426,600.902283 293.723297,606.276917 
	C292.162079,607.231079 291.468231,610.396362 291.262726,612.622681 
	C290.729095,618.403015 291.534576,624.426758 290.232758,629.984985 
	C288.731232,636.395691 284.435760,641.101807 278.893829,645.439270 
	C272.221008,650.661865 265.489014,653.476868 257.322845,652.930725 
	C247.792038,652.293274 239.641830,648.720947 234.166061,640.446106 
	C231.750809,636.796265 228.491043,633.303894 227.426804,629.262756 
	C226.092804,624.197327 226.009323,618.573853 226.589798,613.324341 
	C226.904266,610.480408 226.587051,609.324280 224.294632,607.988525 
	C205.876999,597.257019 187.533020,586.399231 169.124542,575.651978 
	C163.367783,572.291077 157.214401,569.542664 151.732727,565.796570 
	C146.392380,562.147095 143.716553,567.237915 140.864868,569.009277 
	C125.990860,578.248230 112.334389,575.719360 101.027626,565.397339 
	C91.846176,557.015564 88.003609,546.557983 91.095062,534.239441 
	C92.498108,528.648621 94.939369,523.587219 99.171036,519.186157 
	C103.488358,514.695923 108.826332,512.333435 113.953117,509.338684 
	C115.156914,508.635468 115.931015,506.224548 115.939796,504.594055 
	C116.065445,481.268982 116.024864,457.943024 116.026680,434.617279 
	C116.027023,430.268433 115.374870,425.784119 116.228371,421.608521 
	C117.097519,417.356384 114.585083,416.266876 111.943230,415.514252 
	C100.898308,412.367798 95.381393,403.644073 91.279831,394.221710 
	C86.156479,382.451965 93.867928,364.018097 105.056274,357.342926 
	C118.100304,349.560608 130.643753,350.088409 143.618866,358.023926 
	C144.001297,358.041779 143.930542,358.035156 144.069504,358.374878 
	C146.410797,361.642059 149.125931,361.699860 152.032959,359.979523 
	C154.100327,358.756073 156.062698,357.355164 158.043137,356.016083 
	C158.014328,355.998718 158.040207,356.060822 158.404984,356.031433 
	C166.358353,351.659180 173.984177,347.379639 181.521057,342.948853 
	C185.779831,340.445251 189.892334,337.692810 194.038422,335.030029 
	C194.006119,335.007568 194.045822,335.075500 194.393707,335.045166 
	C196.185074,334.025574 197.628571,333.036316 199.039673,332.026917 
	C199.007309,332.006744 199.046738,332.072083 199.416519,332.037659 
	C201.568985,330.682007 203.351669,329.360779 205.075195,328.025696 
	C205.016022,328.011841 204.989899,328.130554 205.255310,328.440063 
	C206.368515,328.185944 207.216309,327.622314 208.033005,327.030731 
	C208.001923,327.002777 208.049286,327.071716 208.427002,327.036560 
	C209.914917,326.013580 211.025131,325.025757 212.075531,324.024109 
	C212.015732,324.010315 211.989624,324.130249 212.254242,324.441101 
	C213.367325,324.187103 214.215775,323.622284 215.028000,323.073151 
	C214.991776,323.088837 215.035873,323.154327 215.035858,323.154327 
	C218.342682,321.439545 221.812500,319.964752 224.872238,317.886230 
	C226.018768,317.107391 227.026306,314.732117 226.714874,313.410370 
	C222.861038,297.053101 233.074936,282.179993 246.238632,275.443756 
	C256.054840,270.420532 272.575195,273.570129 280.853943,281.337799 
	C281.670135,282.103607 282.729187,282.610626 283.906311,283.620453 
	C284.137115,284.003143 284.445648,283.998810 284.718414,284.269348 
	C285.601624,285.841248 286.064728,287.239441 286.846252,288.428253 
	C292.152283,296.499115 293.204834,305.232574 291.293243,314.545532 
	C291.149292,315.246765 292.375488,316.229248 292.977814,317.046692 
	C292.990845,317.012421 292.928864,317.051697 293.053986,317.374023 
	C294.771545,318.489441 296.363953,319.282532 297.972748,320.043121 
	C297.989105,320.010620 297.923706,320.042542 298.054565,320.370667 
	C299.445099,321.159424 300.704742,321.620087 301.943787,322.047333 
	C301.923126,322.013947 301.865845,322.067627 301.865845,322.067627 
M240.362732,353.149963 
	C240.033051,353.849091 239.703369,354.548187 238.848190,355.700012 
	C238.317261,356.921295 237.786346,358.142578 236.791153,359.757172 
	C236.497986,360.475525 236.204819,361.193878 235.267868,362.209106 
	C232.629425,366.546722 229.867004,370.814758 227.383194,375.239197 
	C224.111160,381.067749 221.058044,387.019196 217.275589,393.203094 
	C216.154099,395.441406 215.032623,397.679718 213.276108,400.203461 
	C212.153839,402.439758 211.031570,404.676056 209.267838,407.202271 
	C208.586166,407.923553 207.711624,408.539795 207.252609,409.382416 
	C202.616196,417.893616 198.261414,426.565399 193.412445,434.952026 
	C185.229095,449.105713 176.683655,463.049500 168.405853,477.149292 
	C161.524872,488.869843 154.670303,500.611755 148.167465,512.542297 
	C147.160339,514.390076 147.432358,517.574646 148.289551,519.656494 
	C149.755203,523.216064 152.921371,526.165955 153.985046,529.780396 
	C155.785873,535.899780 160.156052,535.179565 164.562347,534.943176 
	C167.836472,534.767578 171.095322,534.095093 174.364182,534.070496 
	C187.959290,533.968140 201.555603,534.027405 215.151474,534.027405 
	C226.914276,534.027405 238.677094,534.027405 250.439896,534.027405 
	C265.868805,534.027405 281.298553,533.932312 296.726349,534.064148 
	C305.563812,534.139587 314.398804,534.825439 323.233765,534.802368 
	C334.993439,534.771545 346.754730,534.391418 358.507751,533.957092 
	C360.044006,533.900330 362.130768,533.039062 362.940704,531.852783 
	C365.852783,527.587830 368.440369,523.084900 370.892090,518.532776 
	C371.567230,517.279175 372.018677,515.169617 371.422699,514.084412 
	C367.036835,506.098633 362.361237,498.271942 357.773041,490.397400 
	C348.439453,474.378479 339.089783,458.368896 329.773529,442.339905 
	C324.235626,432.811737 318.750824,423.252777 313.238373,413.709839 
	C307.834564,404.354950 302.526428,394.942749 296.984772,385.670197 
	C293.188477,379.318115 289.064270,373.162018 285.004517,366.191925 
	C283.256317,363.256714 281.508118,360.321533 279.313965,356.807190 
	C276.117188,350.656525 272.920380,344.505890 270.044098,338.971863 
	C263.774567,338.971863 258.144836,338.833710 252.529892,339.061096 
	C250.967819,339.124298 249.449600,340.269897 247.302094,341.217224 
	C246.620209,342.600708 245.938309,343.984192 244.779907,345.778870 
	C244.534027,346.529083 244.288147,347.279327 243.435806,348.120789 
	C243.082031,348.831787 242.728271,349.542755 241.888580,350.675964 
	C241.562836,351.424316 241.237091,352.172699 240.362732,353.149963 
M224.999039,334.998718 
	C224.999039,334.998718 224.950455,334.928925 224.163269,335.003418 
	C223.730118,335.657562 223.296967,336.311737 222.982422,336.995667 
	C222.982422,336.995667 223.006805,336.875854 222.371918,336.319519 
	C220.730530,337.214783 219.089157,338.110077 217.201187,339.027374 
	C217.201187,339.027374 217.003387,339.448547 216.384323,339.908478 
	C209.564713,343.923645 202.745087,347.938843 195.995590,351.996155 
	C195.995590,351.996155 195.949936,351.928284 195.166809,351.999847 
	C194.731476,352.652740 194.296158,353.305634 193.979782,353.987305 
	C193.979782,353.987305 193.999573,353.866547 193.427582,353.282898 
	C191.929306,354.170898 190.431030,355.058929 188.999359,356.000000 
	C188.999359,356.000000 188.937134,355.942566 188.225281,355.996490 
	C186.124420,357.304260 184.023544,358.612000 181.191895,360.001862 
	C174.442078,363.524017 167.434860,366.646515 161.060684,370.751892 
	C158.248398,372.563141 154.526382,373.775452 155.527695,380.037750 
	C158.090317,396.064575 150.634995,409.194611 135.549149,414.819550 
	C131.029968,416.504608 130.759445,419.121979 130.011047,422.406769 
	C129.830643,423.198578 129.985397,424.066681 129.985489,424.899719 
	C129.986664,436.909637 129.988174,448.919586 129.988739,460.929504 
	C129.989304,472.600952 129.905670,484.273285 130.032013,495.943359 
	C130.079193,500.301727 130.615295,504.654785 131.021286,510.301331 
	C133.206879,508.298492 134.523392,507.538910 135.205170,506.399536 
	C143.844666,491.961273 152.460358,477.507782 160.944656,462.977875 
	C168.955841,449.258148 176.879700,435.485870 184.669403,421.639618 
	C186.526321,418.338959 187.696060,414.651672 189.111435,411.064636 
	C189.111435,411.064636 189.037170,411.138580 189.640610,411.676697 
	C190.117538,410.801239 190.594467,409.925751 191.003006,409.003082 
	C191.003006,409.003082 191.050171,409.071503 191.686951,408.781677 
	C192.815826,406.536987 193.944717,404.292297 195.003632,402.003204 
	C195.003632,402.003204 195.051941,402.070496 195.708649,401.756012 
	C196.516068,399.505005 197.323471,397.253998 198.011734,395.021545 
	C198.011734,395.021545 198.039276,395.138947 198.646622,395.666443 
	C199.121567,394.794159 199.596512,393.921875 200.002243,393.001923 
	C200.002243,393.001923 200.054672,393.067566 200.725143,392.728546 
	C201.194199,391.151428 201.663239,389.574280 202.009811,388.017700 
	C202.009811,388.017700 202.037811,388.138733 202.643646,388.670105 
	C203.119492,387.796875 203.595337,386.923676 204.003220,386.003510 
	C204.003220,386.003510 204.048309,386.072754 204.672409,385.800232 
	C205.473251,384.213348 206.274109,382.626495 207.006210,381.005890 
	C207.006210,381.005890 207.042084,381.073578 207.676926,380.779114 
	C209.808380,376.868958 211.939850,372.958801 214.002823,369.002899 
	C214.002823,369.002899 214.050858,369.069885 214.727173,368.784729 
	C215.526718,366.523834 216.326263,364.262970 217.008835,362.021088 
	C217.008835,362.021088 217.035782,362.136475 217.640244,362.671478 
	C218.117249,361.797974 218.594254,360.924500 219.003036,360.003082 
	C219.003036,360.003082 219.050003,360.071960 219.672638,359.797913 
	C220.473480,358.212402 221.274323,356.626862 222.003891,355.001617 
	C222.003891,355.001617 222.056259,355.064087 222.753784,354.689758 
	C222.879227,353.789795 223.004684,352.889801 223.009857,352.014374 
	C223.009857,352.014374 223.040970,352.133118 223.695312,352.624481 
	C225.819855,348.766510 227.944412,344.908539 230.002502,341.004425 
	C230.002502,341.004425 230.044937,341.073364 230.682770,340.779602 
	C232.625015,337.470917 234.567276,334.162231 236.742889,330.455994 
	C231.546387,330.128143 229.603958,331.016510 227.986389,333.989899 
	C227.986389,333.989899 228.010605,333.870514 227.482239,333.247131 
	C226.633530,333.811951 225.784821,334.376770 224.999039,334.998718 
M294.998779,352.998779 
	C294.998779,352.998779 294.924561,353.041412 295.172852,353.689697 
	C296.098175,355.150177 297.023468,356.610626 297.994812,358.005096 
	C297.994812,358.005096 297.928467,358.050629 298.001587,358.833374 
	C298.653564,359.268738 299.305511,359.704132 299.918793,360.054871 
	C299.918793,360.054871 299.835266,360.095825 299.447754,360.805756 
	C326.959442,410.981689 356.225342,460.130737 384.860870,509.648773 
	C385.677856,509.442169 386.494873,509.235565 387.311859,509.028961 
	C387.546753,505.557953 387.977844,502.087341 387.985229,498.615845 
	C388.039886,472.957672 387.963898,447.299103 388.065735,421.641235 
	C388.078400,418.448944 387.414398,416.982117 383.986115,415.765625 
	C368.907654,410.415283 361.708130,396.573975 362.134430,383.098083 
	C362.414886,374.231476 362.848511,374.329742 355.829712,370.377594 
	C344.280884,363.874573 332.797272,357.255646 321.290619,350.677765 
	C316.201141,347.768341 311.105469,344.869110 306.042969,341.913239 
	C298.655090,337.599609 291.294525,333.239075 283.294403,328.528839 
	C282.766113,332.193512 281.999390,335.212219 286.212158,337.611206 
	C288.849182,342.100891 291.486176,346.590607 294.017822,351.686035 
	C294.321808,352.140228 294.625793,352.594391 294.998779,352.998779 
M178.998138,565.525818 
	C189.230103,571.418762 199.462570,577.310913 209.693832,583.205078 
	C216.661926,587.219360 223.530930,591.424622 230.665009,595.118042 
	C232.417557,596.025330 235.310486,595.933838 237.198822,595.147705 
	C242.711029,592.853088 247.726685,588.844788 253.400070,587.571472 
	C263.858856,585.224182 273.243011,588.839905 281.374084,595.814697 
	C282.428650,596.719360 284.697266,597.485901 285.704102,596.964905 
	C293.095337,593.139893 300.369843,589.075928 307.562408,584.883606 
	C316.929535,579.423767 326.099335,573.622009 335.518158,568.255371 
	C343.789612,563.542542 352.336334,559.313782 360.631317,554.640320 
	C361.854126,553.951355 362.357574,551.985657 363.193878,550.610718 
	C361.686371,550.062927 360.183624,549.055664 358.670593,549.039978 
	C346.506683,548.914124 334.340881,548.977539 322.175629,548.978699 
	C268.348755,548.983704 214.521896,548.975342 160.695114,549.039612 
	C158.756317,549.041931 156.818359,549.755188 154.880020,550.137085 
	C154.952072,550.565247 155.024124,550.993408 155.096176,551.421570 
	C162.862152,555.973572 170.628128,560.525574 178.998138,565.525818 
z"/>
<path fill="#63DAFA" opacity="1.000000" stroke="none" 
	d="
M499.180481,386.961487 
	C498.023071,384.177155 496.865662,381.392822 495.419800,377.914551 
	C501.537628,378.680634 506.817505,379.757538 512.125061,379.917389 
	C522.286133,380.223511 529.893372,374.771179 531.816101,364.862457 
	C533.860840,354.324768 535.757385,343.541351 535.709656,332.874207 
	C535.659607,321.692383 533.291199,310.512329 531.805176,299.348907 
	C530.945984,292.894440 530.516296,291.558441 522.955994,293.356873 
	C515.398438,295.154663 507.569427,295.804199 499.865509,296.996399 
	C492.622925,298.117157 485.335999,299.048157 478.184509,300.597687 
	C476.244568,301.018036 474.519745,303.195190 473.045471,304.872986 
	C465.234192,313.762543 457.496338,322.717590 449.815826,331.720551 
	C447.038910,334.975586 444.491730,338.426605 441.314423,342.454010 
	C448.016876,347.968567 454.531219,353.328308 461.659637,359.193329 
	C452.956299,358.771851 444.712006,358.372711 436.467773,357.972290 
	C436.302124,357.964233 436.054932,358.005432 435.983734,357.915039 
	C432.235779,353.155945 427.600403,354.468170 422.935852,355.995300 
	C416.487579,358.106415 412.279083,353.563599 407.404541,351.014893 
	C410.286407,348.473724 413.180908,346.211731 415.632874,343.543091 
	C416.203369,342.922180 415.705017,340.575714 414.949127,339.609497 
	C411.832001,335.625305 408.424042,331.868866 405.127563,328.024780 
	C400.288055,322.381378 395.297485,316.858582 390.656036,311.056610 
	C385.329071,304.397705 380.093994,299.377716 370.116791,299.573181 
	C360.604218,299.759552 351.010101,296.605377 341.482300,294.762360 
	C338.009491,294.090607 334.632324,292.934448 331.196991,292.056305 
	C328.290009,291.313202 327.437469,293.271973 327.020905,295.501526 
	C325.044678,306.078064 321.931122,316.511749 322.964661,327.477234 
	C323.067627,328.569519 322.832855,329.693665 322.692902,331.683716 
	C317.389893,328.912476 312.557098,326.489044 307.865875,323.817078 
	C307.217346,323.447723 306.899506,321.788116 307.055939,320.828094 
	C308.221893,313.674011 309.490784,306.535217 310.847076,299.414398 
	C311.412109,296.447815 312.771881,293.539185 312.785736,290.599548 
	C312.792877,289.076752 310.915741,286.565277 309.439026,286.165405 
	C292.864594,281.677429 277.249115,274.820465 262.334259,266.544952 
	C251.895157,260.752869 242.092575,253.627472 234.743347,244.035812 
	C227.746750,234.904358 223.061554,220.213699 231.527664,206.410645 
	C239.322037,193.702789 250.271622,185.084412 262.270050,177.518661 
	C270.179230,172.531464 279.010498,168.919388 287.651642,165.210571 
	C293.556610,162.676132 299.788574,160.836792 305.982880,159.066483 
	C310.143555,157.877380 312.023438,156.387451 311.167786,151.362137 
	C309.000427,138.632523 305.352539,126.101982 305.923004,112.946533 
	C306.369965,102.639557 305.671844,92.490387 308.458282,82.110382 
	C310.478424,74.584976 313.609955,67.825684 317.322510,61.449520 
	C319.657867,57.438591 324.507629,54.254524 328.928864,52.218239 
	C340.780640,46.759613 352.618073,47.408169 365.348297,51.305779 
	C377.834900,55.128796 388.536285,61.594181 399.398376,68.097656 
	C404.823883,71.346092 409.783539,75.415176 414.758118,79.359993 
	C418.406525,82.253151 421.584564,85.742844 425.255371,88.603340 
	C428.275452,90.956772 431.291504,89.674469 434.013123,87.520844 
	C443.467468,80.039665 452.490448,71.897186 462.532471,65.309555 
	C471.469086,59.447075 481.166992,54.725582 491.622589,51.458069 
	C498.788177,49.218723 505.738647,47.989452 513.170532,47.923592 
	C526.646179,47.804169 538.672424,56.955215 544.459595,68.697853 
	C553.451416,86.943275 553.053223,106.032440 550.934753,125.340698 
	C549.909912,134.681671 547.812500,143.901672 546.477722,153.216171 
	C546.314575,154.354675 547.583923,156.456253 548.680786,156.901764 
	C561.448608,162.087646 574.578857,166.465149 587.049622,172.267731 
	C594.784729,175.866821 601.929565,181.066849 608.649841,186.414642 
	C614.564758,191.121521 620.582458,196.351990 624.594666,202.608261 
	C628.384766,208.518097 631.337280,216.011124 631.554077,222.905396 
	C631.833862,231.802612 627.481995,240.468567 621.083008,246.767609 
	C613.784485,253.952118 605.706787,260.635284 597.045776,266.066071 
	C587.908936,271.795288 577.774719,275.989227 567.897705,280.459442 
	C562.879639,282.730560 557.495605,284.219971 552.214966,285.863190 
	C551.070923,286.219177 549.660583,285.719513 548.272217,285.605713 
	C545.943481,290.068359 547.500732,294.560944 548.904053,299.377075 
	C550.525146,304.940704 551.397339,310.802704 551.892456,316.595154 
	C552.595642,324.820923 553.179260,333.120789 552.874878,341.354248 
	C552.387878,354.524689 550.330994,367.486145 542.980347,378.891174 
	C536.198914,389.413116 527.095642,396.195404 513.933350,395.999939 
	C510.602661,395.950470 507.270721,395.980804 503.463318,395.977722 
	C502.987244,395.980957 503.086792,396.013092 503.051758,395.629669 
	C501.696716,392.470245 500.376678,389.694244 499.076355,386.961365 
	C499.096039,387.004456 499.180481,386.961487 499.180481,386.961487 
M492.016174,246.498932 
	C496.337494,238.257660 500.658783,230.016373 504.886200,221.954147 
	C503.826202,220.168610 502.887360,218.677994 502.036194,217.138885 
	C495.343994,205.037537 488.847595,192.823105 481.912048,180.863174 
	C478.474091,174.934601 473.563446,169.794312 470.610474,163.674286 
	C468.775116,159.870468 466.097076,158.305130 462.945557,158.138199 
	C450.191620,157.462585 437.409790,157.148468 424.636078,157.072357 
	C416.884369,157.026154 409.094971,158.260178 401.383698,157.827805 
	C392.825897,157.347916 387.875000,161.469147 383.942627,168.242111 
	C375.311340,183.108231 366.389252,197.807144 357.890900,212.747818 
	C355.271484,217.352966 351.992371,222.152054 355.492096,228.041199 
	C362.754364,240.261734 369.684631,252.680817 377.026398,264.852386 
	C381.109985,271.622406 385.699738,278.091278 390.197479,284.601837 
	C390.730499,285.373413 392.104065,285.885895 393.123047,285.948456 
	C400.205750,286.383423 407.294708,286.823425 414.387482,286.960602 
	C423.044434,287.128082 431.708710,287.099884 440.366547,286.957275 
	C444.455383,286.889954 448.532501,286.282898 452.622528,286.060669 
	C456.273956,285.862305 459.998840,286.231018 463.570099,285.629700 
	C465.800507,285.254211 468.377563,284.021851 469.791077,282.331207 
	C472.538666,279.045044 474.613708,275.188721 476.901093,271.527191 
	C481.945801,263.451874 486.949371,255.350861 492.016174,246.498932 
M566.892883,180.379776 
	C560.853149,178.257095 554.783020,176.216400 548.782837,173.987183 
	C543.468811,172.012878 540.750427,172.893341 539.110291,177.783859 
	C537.270508,183.269730 535.830688,188.890671 533.956787,194.363800 
	C532.925049,197.377136 531.238525,200.159836 530.062256,203.131653 
	C528.355408,207.444061 527.124939,211.965546 525.163696,216.150635 
	C523.418213,219.875336 523.235107,223.010956 524.853088,227.005096 
	C530.216858,240.245758 535.088257,253.688797 539.989441,267.112274 
	C541.579285,271.466705 543.783325,272.589417 547.976501,270.530304 
	C549.719238,269.674500 551.452637,268.786469 553.246704,268.050659 
	C561.796387,264.543945 570.617798,261.588043 578.853271,257.459961 
	C586.371948,253.691177 593.767212,249.291260 600.272705,244.007065 
	C605.524109,239.741486 609.914978,234.093887 613.590515,228.356567 
	C615.253235,225.761185 615.452454,220.955627 614.222656,218.033615 
	C611.282776,211.048294 607.413696,204.137299 600.698914,200.033798 
	C589.797791,193.372009 578.546143,187.283859 566.892883,180.379776 
M461.046600,85.434967 
	C455.172668,90.236412 449.180481,94.906441 443.547302,99.975479 
	C442.663025,100.771217 442.673828,103.966568 443.534088,105.038490 
	C446.367035,108.568390 450.007690,111.441460 452.925781,114.913391 
	C460.011902,123.344345 466.790497,132.033844 473.880829,140.461121 
	C475.195435,142.023605 477.269043,143.575760 479.197083,143.894669 
	C494.924316,146.495834 510.728760,148.635208 526.441223,151.316528 
	C530.396667,151.991531 530.513733,149.694351 531.076233,147.335922 
	C531.299622,146.399078 530.823914,145.291397 531.061768,144.362747 
	C534.937378,129.229767 535.722046,113.789528 534.843262,98.328194 
	C534.439392,91.221718 532.919617,84.028465 530.814453,77.211601 
	C528.753906,70.539207 523.898071,65.117851 516.751709,64.194939 
	C503.503571,62.483967 491.342255,66.673088 480.065094,73.461205 
	C473.859558,77.196541 467.795654,81.167183 461.046600,85.434967 
M402.526886,90.001862 
	C395.006287,84.820000 387.721680,79.244415 379.903717,74.558708 
	C370.710358,69.048668 360.613983,65.660896 349.942291,63.983467 
	C342.029144,62.739647 333.004425,65.794052 329.791382,72.949837 
	C326.617523,80.018471 324.318481,87.749138 323.241119,95.415001 
	C322.139801,103.251106 322.475555,111.402519 323.112640,119.341248 
	C323.931000,129.538254 325.588409,139.674698 327.171234,149.792343 
	C327.317291,150.725800 329.660217,152.130081 330.767151,151.954468 
	C335.045288,151.275818 339.191772,149.778473 343.467651,149.072220 
	C354.523560,147.246109 365.583496,145.272614 376.723175,144.212082 
	C381.026276,143.802414 383.702423,142.416290 386.030365,139.091003 
	C389.992737,133.431015 393.908264,127.700066 398.345093,122.420525 
	C403.345428,116.470551 408.804352,110.892136 414.262085,105.347305 
	C416.406555,103.168633 416.559753,101.572556 414.186951,99.663704 
	C410.445099,96.653496 406.749878,93.585220 402.526886,90.001862 
M274.019653,188.454071 
	C265.585846,194.240036 256.368774,199.033981 249.692627,207.078278 
	C241.384979,217.088425 240.102646,222.110550 246.228821,232.276688 
	C253.023849,243.552689 264.250732,250.279724 275.374908,256.576660 
	C281.617035,260.110077 288.582611,262.415314 295.330292,264.990723 
	C301.192596,267.228271 307.166779,269.199646 313.171173,271.026825 
	C316.138855,271.929932 318.252808,270.994019 318.174896,267.286011 
	C318.152557,266.222656 318.644897,265.115021 319.041382,264.081421 
	C323.542633,252.346481 328.034882,240.607758 332.611420,228.902069 
	C334.274078,224.649429 335.656677,220.670227 333.079010,216.070084 
	C330.621674,211.684692 328.790253,206.911957 327.029846,202.180695 
	C323.887695,193.735748 320.750946,185.271729 318.121613,176.660065 
	C316.777466,172.257675 314.825897,171.267670 310.719269,173.012451 
	C298.731995,178.105469 286.678192,183.041992 274.019653,188.454071 
M412.709534,302.996094 
	C410.464661,303.242676 408.219788,303.489258 405.868256,303.747559 
	C406.165527,305.108734 406.130554,305.515991 406.317383,305.722137 
	C413.338989,313.469543 420.301575,321.274902 427.553650,328.801239 
	C428.216064,329.488678 431.398102,328.976532 432.313202,327.996826 
	C439.255920,320.563995 445.924988,312.875519 453.793671,304.011566 
	C439.703735,301.621765 426.543396,304.669342 412.709534,302.996094 
M421.388184,121.057106 
	C416.058807,127.347038 410.729431,133.636978 404.706787,140.745117 
	C421.619873,140.745117 436.689758,140.745117 452.962677,140.745117 
	C451.147552,138.369797 449.980011,136.654053 448.623993,135.103104 
	C444.797791,130.726669 440.933380,126.381943 437.006622,122.095627 
	C434.566742,119.432320 432.349182,115.671577 429.328979,114.777458 
	C427.589050,114.262352 424.449036,118.476425 421.388184,121.057106 
M501.997681,182.520798 
	C505.461884,188.348953 508.926117,194.177094 512.558960,200.288864 
	C513.795349,199.524933 515.405090,199.111542 515.775940,198.196167 
	C517.080811,194.975983 517.907227,191.565689 519.012817,188.260208 
	C520.837585,182.804642 522.849487,177.408142 524.515808,171.905975 
	C524.859985,170.769592 524.471008,168.630173 523.660950,168.088715 
	C522.002319,166.980057 519.866394,166.478409 517.860352,166.015945 
	C510.869965,164.404449 503.873932,162.796249 496.828308,161.459229 
	C494.879242,161.089355 492.750641,161.665604 490.704407,161.807755 
	C490.819489,163.292206 490.423920,165.108536 491.136353,166.204773 
	C494.576691,171.498535 498.315216,176.598511 501.997681,182.520798 
M521.671021,261.150879 
	C518.906677,255.012665 516.142334,248.874435 513.072632,242.058273 
	C505.031952,255.856110 497.562561,268.673645 489.911499,281.802826 
	C491.044556,281.888153 491.857788,282.111481 492.609985,281.981506 
	C502.648834,280.247040 512.701843,278.578979 522.697937,276.621887 
	C525.754944,276.023346 525.304993,273.447266 524.631714,271.136139 
	C523.736206,268.062469 522.854492,264.984802 521.671021,261.150879 
M345.511719,279.003601 
	C349.774658,279.901611 354.013702,281.327179 358.308502,281.521698 
	C361.440308,281.663544 365.023956,285.132141 368.203003,281.029633 
	C365.465515,276.805481 362.713562,272.824371 360.237305,268.678619 
	C356.067078,261.696777 352.090942,254.599228 347.985199,247.578400 
	C347.249359,246.320068 346.282166,245.197037 345.421814,244.011536 
	C344.366455,245.129059 342.856995,246.066345 342.330200,247.393646 
	C339.151733,255.402039 336.128510,263.474609 333.208984,271.581757 
	C332.245789,274.256439 333.033020,276.337219 336.186188,277.006042 
	C339.016083,277.606323 341.819794,278.330048 345.511719,279.003601 
M358.087952,178.600159 
	C360.734589,174.688934 363.480072,170.839233 365.973724,166.832779 
	C366.833679,165.451096 367.066345,163.678970 367.585602,162.085220 
	C365.704559,161.737534 363.722870,160.824234 361.959534,161.138046 
	C353.399536,162.661469 344.901855,164.532822 336.374084,166.241043 
	C332.538788,167.009308 331.471161,168.994949 333.167145,172.605057 
	C333.980194,174.335739 334.332336,176.276672 335.002838,178.081650 
	C337.899811,185.879807 340.837311,193.662903 343.760040,201.451492 
	C344.321564,201.336334 344.883087,201.221176 345.444580,201.106018 
	C349.615295,193.859131 353.786011,186.612244 358.087952,178.600159 
z"/>
<path fill="#E13137" opacity="1.000000" stroke="none" 
	d="
M143.983002,358.072388 
	C143.517807,357.148407 143.323761,355.692047 142.583755,355.319214 
	C137.043961,352.527863 131.633163,350.016541 124.989372,349.789368 
	C112.932083,349.377075 103.453941,353.642517 95.933556,362.673737 
	C93.669380,365.392761 92.021072,368.624634 90.024864,371.723724 
	C79.309181,365.949310 68.928902,360.255219 58.440601,354.767609 
	C55.460949,353.208679 54.321941,351.122437 53.957581,347.810913 
	C52.161385,331.486237 50.069645,315.194244 48.131187,298.884918 
	C47.374439,292.518005 46.725605,286.137939 46.063751,279.760132 
	C45.028877,269.787781 44.139477,259.798889 42.981476,249.841080 
	C41.107635,233.727707 38.938934,217.648087 37.130314,201.527802 
	C35.278675,185.024063 34.222523,168.412018 31.770815,152.003876 
	C30.762362,145.254761 33.778088,144.271042 38.698872,142.577988 
	C54.751209,137.055038 70.601196,130.947464 86.594307,125.248009 
	C106.589500,118.122330 126.661201,111.211670 146.676727,104.142647 
	C157.618362,100.278305 168.494781,96.229012 179.442688,92.382965 
	C181.576340,91.633408 183.904205,91.436707 186.571518,91.411194 
	C187.013565,103.922226 187.026581,116.007057 187.039597,128.091888 
	C181.329254,140.759628 175.621506,153.428513 169.908035,166.094833 
	C160.936005,185.985092 151.942612,205.865738 142.989777,225.764618 
	C128.123505,258.806946 113.276024,291.857727 98.435501,324.911621 
	C95.346169,331.792389 92.321526,338.702271 89.019890,346.156830 
	C90.442307,346.503174 91.620247,347.060364 92.783386,347.030975 
	C103.383156,346.763397 113.990082,346.546722 124.566895,345.874298 
	C126.010124,345.782562 127.874901,343.506348 128.568802,341.836182 
	C134.156357,328.387421 139.683746,314.906891 144.812134,301.278992 
	C146.085800,297.894440 147.882111,297.060944 151.033600,297.083496 
	C162.692841,297.167053 174.352936,297.134308 186.486694,297.661621 
	C186.962952,311.072876 186.965225,323.967743 186.654907,337.018494 
	C185.379211,338.059601 184.534531,339.144196 183.433929,339.798065 
	C175.552994,344.480255 167.603287,349.046814 159.730408,353.742310 
	C158.974838,354.192932 158.594635,355.272949 158.040192,356.060822 
	C158.040207,356.060822 158.014328,355.998718 157.736633,355.696747 
	C153.033447,356.705078 148.995972,360.003571 143.930542,358.035156 
	C143.930542,358.035156 144.001297,358.041779 143.983002,358.072388 
z"/>
<path fill="#42B783" opacity="1.000000" stroke="none" 
	d="
M612.017822,371.947784 
	C617.882446,369.823120 623.857422,371.216064 629.790771,371.421814 
	C630.923767,371.461090 632.040039,371.918152 633.174805,371.977325 
	C645.534180,372.622040 657.895752,373.225830 671.487305,373.902008 
	C669.571655,378.096222 668.300598,381.799042 666.307556,385.060760 
	C661.395325,393.100006 656.078552,400.890747 651.056580,408.864563 
	C641.193970,424.524353 631.353699,440.199036 621.632202,455.946564 
	C613.676941,468.833130 605.986511,481.883148 598.034668,494.771912 
	C589.111206,509.235565 579.964233,523.561279 571.027954,538.017151 
	C561.748230,553.028625 552.727295,568.200989 543.367981,583.162170 
	C532.889954,599.911682 522.103455,616.467896 511.583710,633.191650 
	C509.388153,636.682129 507.772064,640.537109 505.121735,645.726318 
	C502.046082,639.818665 499.486633,635.374023 497.361847,630.730530 
	C491.593811,618.125122 486.035919,605.423767 480.347290,592.781738 
	C470.932861,571.859924 461.514374,550.939758 452.030396,530.049438 
	C447.777588,520.681824 443.271179,511.429016 439.043030,502.050537 
	C433.283020,489.274231 427.784546,476.379395 421.961792,463.632294 
	C419.224548,457.639954 415.646729,452.021027 413.067322,445.969696 
	C409.478912,437.551239 406.470276,428.885681 403.032166,419.849426 
	C416.082520,414.455170 425.735992,406.967773 429.151398,393.153534 
	C432.494904,379.630035 427.494202,368.773163 419.255096,358.193237 
	C424.683380,357.694427 429.476013,357.484253 432.769897,363.307983 
	C438.775787,375.671722 444.288147,387.673737 449.751709,399.697906 
	C457.344452,416.407898 464.829132,433.167419 472.494568,449.843872 
	C478.846832,463.663452 485.492828,477.348206 491.825958,491.176331 
	C497.924896,504.493164 503.789856,517.917175 509.756470,531.294617 
	C510.227875,532.351440 510.690582,533.412170 511.470703,535.182190 
	C525.165100,513.264648 537.834290,493.132477 550.353821,472.907654 
	C561.614197,454.716949 572.724976,436.433502 583.874512,418.174316 
	C593.275879,402.777863 602.638184,387.357513 612.017822,371.947784 
z"/>
<path fill="#33495D" opacity="1.000000" stroke="none" 
	d="
M611.921631,371.563293 
	C602.638184,387.357513 593.275879,402.777863 583.874512,418.174316 
	C572.724976,436.433502 561.614197,454.716949 550.353821,472.907654 
	C537.834290,493.132477 525.165100,513.264648 511.470703,535.182190 
	C510.690582,533.412170 510.227875,532.351440 509.756470,531.294617 
	C503.789856,517.917175 497.924896,504.493164 491.825958,491.176331 
	C485.492828,477.348206 478.846832,463.663452 472.494568,449.843872 
	C464.829132,433.167419 457.344452,416.407898 449.751709,399.697906 
	C444.288147,387.673737 438.775787,375.671722 433.156006,363.324768 
	C432.815979,361.881134 432.605103,360.772552 432.230072,358.800934 
	C438.050598,359.224121 443.506378,359.660950 448.967896,360.007172 
	C454.961426,360.387085 460.960938,360.672272 466.956635,361.019409 
	C472.549103,361.343231 478.214478,361.275604 483.692749,362.251068 
	C485.721558,362.612305 487.926117,365.139374 488.980225,367.220703 
	C491.950226,373.085144 494.347717,379.238464 497.021240,385.255493 
	C497.327087,385.943787 497.952271,386.490173 498.804932,387.031921 
	C499.180481,386.961487 499.096039,387.004456 498.965393,387.343201 
	C500.252136,390.458984 501.669464,393.236023 503.086792,396.013092 
	C503.086792,396.013092 502.987244,395.980957 502.997864,395.930237 
	C504.025818,398.819977 504.820679,401.861511 506.102295,404.681915 
	C509.906860,413.054626 513.903015,421.340271 518.175354,430.404724 
	C523.120239,422.398254 527.558838,415.183746 532.025146,407.986420 
	C539.296692,396.268311 547.242554,384.905487 553.629578,372.724579 
	C557.652466,365.052399 563.604736,367.022369 569.297424,367.179077 
	C579.364746,367.456207 589.425354,368.237793 599.466492,369.075439 
	C603.615723,369.421570 607.707581,370.456909 611.921631,371.563293 
z"/>
<path fill="#B52E32" opacity="1.000000" stroke="none" 
	d="
M187.377396,128.191528 
	C187.026581,116.007057 187.013565,103.922226 186.982147,91.362122 
	C189.853317,91.280098 192.898422,91.220039 195.604401,92.148407 
	C205.151321,95.423775 214.511063,99.248413 224.074631,102.470490 
	C236.146317,106.537590 248.387848,110.098633 260.480499,114.106171 
	C268.932373,116.907143 277.241150,120.137047 285.644470,123.088219 
	C291.969025,125.309364 298.342163,127.392212 304.453552,129.455551 
	C305.740112,136.623428 306.539948,143.686768 308.409912,150.454422 
	C309.423584,154.122971 308.181671,155.231430 305.373138,156.244644 
	C298.130066,158.857681 290.780090,161.218124 283.681335,164.179306 
	C264.496613,172.182007 246.459183,181.945251 233.463730,198.932724 
	C231.313492,201.743469 229.206314,204.587189 226.577362,208.083038 
	C224.809464,204.526825 223.014297,200.974747 221.271072,197.397369 
	C217.120560,188.879898 212.884140,180.401840 208.887390,171.812500 
	C204.169174,161.672638 199.791046,151.373611 195.013809,141.262512 
	C192.899765,136.788086 190.167053,132.605972 187.377396,128.191528 
z"/>
<path fill="#B62E32" opacity="1.000000" stroke="none" 
	d="
M186.967484,336.862640 
	C186.965225,323.967743 186.962952,311.072876 186.946655,297.728088 
	C192.861694,297.520569 198.788818,297.865692 204.720352,297.977600 
	C211.184860,298.099579 217.653458,298.005310 224.940567,298.005310 
	C224.940567,303.751129 225.061310,309.309753 224.816757,314.852264 
	C224.777924,315.732544 223.169601,316.645447 222.157898,317.360840 
	C219.647079,319.136200 217.061707,320.806122 214.771088,322.836365 
	C215.035873,323.154327 214.991776,323.088837 214.737091,322.795807 
	C213.651489,323.045258 212.820557,323.587769 211.989624,324.130249 
	C211.989624,324.130249 212.015732,324.010315 211.691925,324.031891 
	C210.261841,325.059540 209.155563,326.065643 208.049286,327.071716 
	C208.049286,327.071716 208.001923,327.002777 207.742554,326.752808 
	C206.652100,327.045410 205.820999,327.587982 204.989899,328.130554 
	C204.989899,328.130554 205.016022,328.011841 204.697784,328.031738 
	C202.601959,329.391754 200.824341,330.731903 199.046722,332.072083 
	C199.046738,332.072083 199.007309,332.006744 198.700058,331.791443 
	C196.943817,332.742554 195.494812,333.909027 194.045807,335.075500 
	C194.045822,335.075500 194.006119,335.007568 193.711914,334.786011 
	C191.267624,335.330475 189.117554,336.096558 186.967484,336.862640 
z"/>
<path fill="#B62E31" opacity="1.000000" stroke="none" 
	d="
M188.964142,205.014465 
	C193.599396,213.973495 198.369141,222.866150 202.833374,231.909592 
	C207.638153,241.642914 212.169907,251.511353 216.783051,261.338531 
	C217.370346,262.589630 217.729935,263.947601 218.456421,265.991455 
	C208.106750,265.991455 198.522781,265.991455 188.455475,265.588470 
	C187.770981,259.947601 187.446503,254.710922 187.394485,249.471558 
	C187.287979,238.745239 187.176361,228.014557 187.384247,217.291809 
	C187.463760,213.190689 188.411850,209.106415 188.964142,205.014465 
z"/>
<path fill="#DF3137" opacity="1.000000" stroke="none" 
	d="
M188.929535,204.687531 
	C188.411850,209.106415 187.463760,213.190689 187.384247,217.291809 
	C187.176361,228.014557 187.287979,238.745239 187.394485,249.471558 
	C187.446503,254.710922 187.770981,259.947601 187.986969,265.594238 
	C188.001785,266.002991 188.000000,266.000000 187.725143,266.013763 
	C186.969330,266.276581 186.488373,266.525665 186.007431,266.774750 
	C179.647263,266.809143 173.287094,266.843567 166.172394,266.640656 
	C163.922623,265.902161 162.427414,265.401001 160.932205,264.899811 
	C164.477661,255.947830 167.908707,246.948410 171.596954,238.055649 
	C176.409454,226.452194 181.425690,214.933228 186.943146,203.196167 
	C187.925568,203.030045 188.319107,203.045685 188.712646,203.061310 
	C188.773422,203.494400 188.834183,203.927505 188.929535,204.687531 
z"/>
<path fill="#B52E33" opacity="1.000000" stroke="none" 
	d="
M284.445648,283.998810 
	C284.445648,283.998810 284.137115,284.003143 284.150696,283.921387 
	C284.164307,282.686096 284.164307,281.532532 284.164307,280.491455 
	C291.434265,283.014984 298.901306,285.619232 306.377502,288.196899 
	C310.221466,289.522186 309.134247,292.633423 308.740295,295.230560 
	C307.622314,302.600372 306.357819,309.952362 304.914856,317.264771 
	C304.620300,318.757751 303.295502,320.047455 302.155701,321.749237 
	C301.865845,322.067627 301.923126,322.013947 302.109619,321.660583 
	C300.838623,320.885681 299.381165,320.464111 297.923706,320.042542 
	C297.923706,320.042542 297.989105,320.010620 298.177612,319.691437 
	C296.553711,318.598724 294.741272,317.825226 292.928864,317.051697 
	C292.928864,317.051697 292.990845,317.012421 293.152649,316.627991 
	C293.222321,314.935913 292.751709,313.516510 293.099457,312.338715 
	C295.330780,304.781799 292.915833,297.782471 290.273743,290.995819 
	C289.229553,288.313690 286.440308,286.310913 284.445648,283.998810 
z"/>
<path fill="#B22E3A" opacity="1.000000" stroke="none" 
	d="
M262.364014,270.419434 
	C260.675323,271.322174 258.921722,271.873108 256.981567,272.482666 
	C255.657333,269.515961 254.563599,267.065704 253.469879,264.615417 
	C253.663223,264.386475 253.856567,264.157532 254.049911,263.928589 
	C256.799652,265.974945 259.549377,268.021301 262.364014,270.419434 
z"/>
<path fill="#B62E31" opacity="1.000000" stroke="none" 
	d="
M160.641647,265.124634 
	C162.427414,265.401001 163.922623,265.902161 165.705475,266.596741 
	C164.112442,266.309906 162.231766,265.829681 160.641647,265.124634 
z"/>
<path fill="#B62E31" opacity="1.000000" stroke="none" 
	d="
M188.705231,202.776184 
	C188.319107,203.045685 187.925568,203.030045 187.237274,202.992249 
	C187.527603,202.810410 188.112717,202.650742 188.705231,202.776184 
z"/>
<path fill="#B62E31" opacity="1.000000" stroke="none" 
	d="
M186.304047,266.845886 
	C186.488373,266.525665 186.969330,266.276581 187.726700,266.014709 
	C187.535629,266.306946 187.068146,266.611969 186.304047,266.845886 
z"/>
<path fill="#000000" opacity="0.000000" stroke="none" 
	d="
M285.086639,366.918304 
	C289.064270,373.162018 293.188477,379.318115 296.984772,385.670197 
	C302.526428,394.942749 307.834564,404.354950 313.238373,413.709839 
	C318.750824,423.252777 324.235626,432.811737 329.773529,442.339905 
	C339.089783,458.368896 348.439453,474.378479 357.773041,490.397400 
	C362.361237,498.271942 367.036835,506.098633 371.422699,514.084412 
	C372.018677,515.169617 371.567230,517.279175 370.892090,518.532776 
	C368.440369,523.084900 365.852783,527.587830 362.940704,531.852783 
	C362.130768,533.039062 360.044006,533.900330 358.507751,533.957092 
	C346.754730,534.391418 334.993439,534.771545 323.233765,534.802368 
	C314.398804,534.825439 305.563812,534.139587 296.726349,534.064148 
	C281.298553,533.932312 265.868805,534.027405 250.439896,534.027405 
	C238.677094,534.027405 226.914276,534.027405 215.151474,534.027405 
	C201.555603,534.027405 187.959290,533.968140 174.364182,534.070496 
	C171.095322,534.095093 167.836472,534.767578 164.562347,534.943176 
	C160.156052,535.179565 155.785873,535.899780 153.985046,529.780396 
	C152.921371,526.165955 149.755203,523.216064 148.289551,519.656494 
	C147.432358,517.574646 147.160339,514.390076 148.167465,512.542297 
	C154.670303,500.611755 161.524872,488.869843 168.405853,477.149292 
	C176.683655,463.049500 185.229095,449.105713 193.412445,434.952026 
	C198.261414,426.565399 202.616196,417.893616 207.252609,409.382416 
	C207.711624,408.539795 208.586166,407.923553 209.780457,407.240417 
	C210.421066,407.400513 210.549088,407.522461 210.473022,407.906281 
	C209.528625,409.904694 208.788300,411.641266 207.877548,413.777649 
	C209.088120,413.777649 209.840393,414.008057 210.320786,413.743958 
	C222.411865,407.096497 234.505585,400.452637 246.533005,393.690979 
	C258.296722,387.077576 269.941406,380.251251 281.744293,373.709503 
	C284.558289,372.149841 286.328308,370.675720 284.735382,367.232849 
	C284.852539,367.128082 285.086639,366.918304 285.086639,366.918304 
z"/>
<path fill="#000000" opacity="0.000000" stroke="none" 
	d="
M178.696121,565.301636 
	C170.628128,560.525574 162.862152,555.973572 155.096176,551.421570 
	C155.024124,550.993408 154.952072,550.565247 154.880020,550.137085 
	C156.818359,549.755188 158.756317,549.041931 160.695114,549.039612 
	C214.521896,548.975342 268.348755,548.983704 322.175629,548.978699 
	C334.340881,548.977539 346.506683,548.914124 358.670593,549.039978 
	C360.183624,549.055664 361.686371,550.062927 363.193848,550.610718 
	C362.357574,551.985657 361.854126,553.951355 360.631317,554.640320 
	C352.336334,559.313782 343.789612,563.542542 335.518158,568.255371 
	C326.099335,573.622009 316.929535,579.423767 307.562408,584.883606 
	C300.369843,589.075928 293.095337,593.139893 285.704102,596.964905 
	C284.697266,597.485901 282.428650,596.719360 281.374084,595.814697 
	C273.243011,588.839905 263.858856,585.224182 253.400070,587.571472 
	C247.726685,588.844788 242.711029,592.853088 237.198822,595.147705 
	C235.310486,595.933838 232.417557,596.025330 230.665009,595.118042 
	C223.530930,591.424622 216.661926,587.219360 209.693832,583.205078 
	C199.462570,577.310913 189.230103,571.418762 178.696121,565.301636 
z"/>
<path fill="#000000" opacity="0.000000" stroke="none" 
	d="
M285.892975,336.994110 
	C281.999390,335.212219 282.766113,332.193512 283.294403,328.528839 
	C291.294525,333.239075 298.655090,337.599609 306.042969,341.913239 
	C311.105469,344.869110 316.201141,347.768341 321.290619,350.677765 
	C332.797272,357.255646 344.280884,363.874573 355.829712,370.377594 
	C362.848511,374.329742 362.414886,374.231476 362.134430,383.098083 
	C361.708130,396.573975 368.907654,410.415283 383.986115,415.765625 
	C387.414398,416.982117 388.078400,418.448944 388.065735,421.641235 
	C387.963898,447.299103 388.039886,472.957672 387.985229,498.615845 
	C387.977844,502.087341 387.546753,505.557953 387.311859,509.028961 
	C386.494873,509.235565 385.677856,509.442169 384.860870,509.648773 
	C356.225342,460.130737 326.959442,410.981689 299.990051,360.516144 
	C304.108368,363.789795 304.749847,359.804230 304.845795,358.047394 
	C305.254333,350.567261 305.603790,342.922394 297.259979,338.752777 
	C293.443054,336.845367 289.740509,334.709106 285.892975,332.626251 
	C285.892975,334.720154 285.892975,335.857117 285.892975,336.994110 
M341.880859,380.007660 
	C340.233032,379.504028 338.499390,379.185120 336.951721,378.465912 
	C328.751007,374.655121 327.457825,366.533081 324.954468,359.135315 
	C324.312164,357.237244 323.605011,354.815521 322.130890,353.846710 
	C317.692139,350.929565 312.860748,348.609863 308.182495,346.057159 
	C307.685577,346.337982 307.188690,346.618805 306.691772,346.899597 
	C307.560242,352.542297 307.989655,358.300629 309.435791,363.791138 
	C310.598694,368.206207 313.612091,372.146790 314.684753,376.569489 
	C316.062897,382.251831 320.250580,385.471222 324.054901,388.883148 
	C329.751587,393.992096 337.062378,396.297882 344.507172,396.780151 
	C349.963501,397.133667 355.532959,395.740784 359.998047,395.243591 
	C359.998047,390.629486 360.062622,387.186798 359.976715,383.747894 
	C359.913086,381.198853 359.672516,378.707764 356.012634,379.031891 
	C351.612793,379.421570 347.202057,379.688171 341.880859,380.007660 
z"/>
<path fill="#000000" opacity="0.000000" stroke="none" 
	d="
M189.181870,411.142212 
	C187.696060,414.651672 186.526321,418.338959 184.669403,421.639618 
	C176.879700,435.485870 168.955841,449.258148 160.944656,462.977875 
	C152.460358,477.507782 143.844666,491.961273 135.205170,506.399536 
	C134.523392,507.538910 133.206879,508.298492 131.021286,510.301331 
	C130.615295,504.654785 130.079193,500.301727 130.032013,495.943359 
	C129.905670,484.273285 129.989304,472.600952 129.988739,460.929504 
	C129.988174,448.919586 129.986664,436.909637 129.985489,424.899719 
	C129.985397,424.066681 129.830643,423.198578 130.011047,422.406769 
	C130.759445,419.121979 131.029968,416.504608 135.549149,414.819550 
	C150.634995,409.194611 158.090317,396.064575 155.527695,380.037750 
	C154.526382,373.775452 158.248398,372.563141 161.060684,370.751892 
	C167.434860,366.646515 174.442078,363.524017 181.745514,360.152161 
	C182.424698,360.429901 182.550247,360.557343 182.445435,360.937592 
	C175.496277,365.124664 168.819717,369.133911 162.038239,372.957031 
	C159.265900,374.519958 157.735092,376.217743 157.867081,379.793640 
	C158.047928,384.693604 157.836731,389.738739 156.814438,394.511963 
	C155.963867,398.483246 153.700897,402.151978 151.928162,406.269165 
	C160.868912,411.259583 169.724594,416.298920 178.715469,421.084259 
	C179.705475,421.611145 182.160202,421.172363 182.750336,420.340576 
	C184.798187,417.454193 186.323242,414.196869 188.333145,411.053833 
	C188.806686,411.065399 188.994278,411.103790 189.181870,411.142212 
z"/>
<path fill="#B62E32" opacity="1.000000" stroke="none" 
	d="
M189.146652,411.103424 
	C188.994278,411.103790 188.806686,411.065399 188.305634,410.622559 
	C187.672287,405.421112 187.133606,400.626770 187.075317,395.826630 
	C186.925720,383.510010 186.989456,371.190765 187.155518,358.561951 
	C187.874481,357.481720 188.405807,356.712158 188.937134,355.942566 
	C188.937134,355.942566 188.999359,356.000000 189.271591,356.234772 
	C191.029068,355.601868 192.514328,354.734222 193.999573,353.866547 
	C193.999573,353.866547 193.979782,353.987305 194.315216,353.970856 
	C195.083740,353.279022 195.516830,352.603668 195.949936,351.928284 
	C195.949936,351.928284 195.995590,351.996155 196.315689,352.197754 
	C203.541885,348.491211 210.450317,344.587097 217.328415,340.630249 
	C217.417236,340.579132 217.120270,339.857300 217.003387,339.448547 
	C217.003387,339.448547 217.201187,339.027374 217.645828,339.317139 
	C219.729248,338.696533 221.368027,337.786194 223.006805,336.875854 
	C223.006805,336.875854 222.982422,336.995667 223.317276,336.966400 
	C224.084915,336.267731 224.517685,335.598328 224.950455,334.928925 
	C224.950455,334.928925 224.999039,334.998718 225.257050,335.249969 
	C226.346893,334.957642 227.178741,334.414093 228.010605,333.870514 
	C228.010605,333.870514 227.986389,333.989899 228.282318,333.971283 
	C229.936813,333.466278 231.295349,332.979889 232.491226,332.551727 
	C231.623352,335.574982 230.834152,338.324158 230.044937,341.073364 
	C230.044937,341.073364 230.002502,341.004425 229.721252,340.781006 
	C227.307007,344.416077 225.173996,348.274597 223.040985,352.133118 
	C223.040970,352.133118 223.009857,352.014374 222.710938,352.157288 
	C222.293442,353.221466 222.174850,354.142792 222.056259,355.064087 
	C222.056259,355.064087 222.003891,355.001617 221.688705,354.815002 
	C220.599030,356.442932 219.824524,358.257446 219.050018,360.071960 
	C219.050003,360.071960 219.003036,360.003082 218.713013,359.791473 
	C217.960602,360.432068 217.498199,361.284271 217.035797,362.136475 
	C217.035782,362.136475 217.008835,362.021088 216.722778,362.138062 
	C215.641449,364.526672 214.846146,366.798279 214.050858,369.069885 
	C214.050858,369.069885 214.002823,369.002899 213.710419,368.791931 
	C211.292709,372.745178 209.167389,376.909363 207.042084,381.073578 
	C207.042084,381.073578 207.006210,381.005890 206.689453,380.817627 
	C205.597916,382.443848 204.823120,384.258301 204.048309,386.072754 
	C204.048309,386.072754 204.003220,386.003510 203.712524,385.791931 
	C202.960480,386.433136 202.499130,387.285919 202.037811,388.138733 
	C202.037811,388.138733 202.009811,388.017700 201.720276,388.145203 
	C200.972061,389.870972 200.513367,391.469269 200.054688,393.067566 
	C200.054672,393.067566 200.002243,393.001923 199.711136,392.792786 
	C198.959778,393.435394 198.499527,394.287170 198.039276,395.138947 
	C198.039276,395.138947 198.011734,395.021545 197.726196,395.137451 
	C196.644409,397.525757 195.848190,399.798126 195.051941,402.070496 
	C195.051941,402.070496 195.003632,402.003204 194.701874,401.804871 
	C193.283463,404.094849 192.166824,406.583160 191.050171,409.071503 
	C191.050171,409.071503 191.003006,409.003082 190.711792,408.792908 
	C189.959442,409.434692 189.498306,410.286652 189.037170,411.138580 
	C189.037170,411.138580 189.111435,411.064636 189.146652,411.103424 
z"/>
<path fill="#B52D36" opacity="1.000000" stroke="none" 
	d="
M286.052551,337.302673 
	C285.892975,335.857117 285.892975,334.720154 285.892975,332.626251 
	C289.740509,334.709106 293.443054,336.845367 297.259979,338.752777 
	C305.603790,342.922394 305.254333,350.567261 304.845795,358.047394 
	C304.749847,359.804230 304.108368,363.789795 300.183807,360.161194 
	C299.835266,360.095825 299.918793,360.054871 299.938171,359.701050 
	C299.281189,358.915009 298.604828,358.482819 297.928467,358.050629 
	C297.928467,358.050629 297.994812,358.005096 298.217834,357.704041 
	C297.268738,355.949127 296.096649,354.495270 294.924561,353.041412 
	C294.924561,353.041412 294.998779,352.998779 295.275879,352.821960 
	C295.076385,352.123535 294.599792,351.601929 294.123199,351.080292 
	C291.486176,346.590607 288.849182,342.100891 286.052551,337.302673 
z"/>
<path fill="#000000" opacity="0.000000" stroke="none" 
	d="
M247.911270,340.918945 
	C249.449600,340.269897 250.967819,339.124298 252.529892,339.061096 
	C258.144836,338.833710 263.774567,338.971863 270.044098,338.971863 
	C272.920380,344.505890 276.117188,350.656525 279.325195,357.261719 
	C279.198944,357.830780 279.061493,357.945343 278.630859,357.877258 
	C277.307190,356.039917 276.405518,354.284454 275.211609,352.757507 
	C273.897369,351.076630 272.541931,348.668762 270.799469,348.245728 
	C267.547668,347.456360 263.994354,347.678894 260.582031,347.830597 
	C254.282501,348.110565 252.896744,347.082245 251.758209,340.320404 
	C250.680542,340.780426 249.667007,341.213043 248.467987,341.463928 
	C248.158752,341.161102 248.035004,341.040009 247.911270,340.918945 
z"/>
<path fill="#000000" opacity="0.000000" stroke="none" 
	d="
M186.654907,337.018494 
	C189.117554,336.096558 191.267624,335.330475 193.744202,334.808441 
	C189.892334,337.692810 185.779831,340.445251 181.521057,342.948853 
	C173.984177,347.379639 166.358353,351.659180 158.404968,356.031433 
	C158.594635,355.272949 158.974838,354.192932 159.730408,353.742310 
	C167.603287,349.046814 175.552994,344.480255 183.433929,339.798065 
	C184.534531,339.144196 185.379211,338.059601 186.654907,337.018494 
z"/>
<path fill="#000000" opacity="0.000000" stroke="none" 
	d="
M217.910812,392.917816 
	C221.058044,387.019196 224.111160,381.067749 227.383194,375.239197 
	C229.867004,370.814758 232.629425,366.546722 235.770782,362.244415 
	C236.394333,362.402283 236.514938,362.524841 236.437164,362.905060 
	C230.370834,373.314240 224.502884,383.465820 218.453964,393.442383 
	C218.152283,393.150879 218.031555,393.034363 217.910812,392.917816 
z"/>
<path fill="#000000" opacity="0.000000" stroke="none" 
	d="
M284.718414,284.269348 
	C286.440308,286.310913 289.229553,288.313690 290.273743,290.995819 
	C292.915833,297.782471 295.330780,304.781799 293.099457,312.338715 
	C292.751709,313.516510 293.222321,314.935913 293.139648,316.662292 
	C292.375488,316.229248 291.149292,315.246765 291.293243,314.545532 
	C293.204834,305.232574 292.152283,296.499115 286.846252,288.428253 
	C286.064728,287.239441 285.601624,285.841248 284.718414,284.269348 
z"/>
<path fill="#000000" opacity="0.000000" stroke="none" 
	d="
M216.693848,339.678528 
	C217.120270,339.857300 217.417236,340.579132 217.328415,340.630249 
	C210.450317,344.587097 203.541885,348.491211 196.280640,352.176697 
	C202.745087,347.938843 209.564713,343.923645 216.693848,339.678528 
z"/>
<path fill="#000000" opacity="0.000000" stroke="none" 
	d="
M230.363861,340.926483 
	C230.834152,338.324158 231.623352,335.574982 232.491226,332.551727 
	C231.295349,332.979889 229.936813,333.466278 228.223389,333.955933 
	C229.603958,331.016510 231.546387,330.128143 236.742889,330.455994 
	C234.567276,334.162231 232.625015,337.470917 230.363861,340.926483 
z"/>
<path fill="#000000" opacity="0.000000" stroke="none" 
	d="
M144.069504,358.374878 
	C148.995972,360.003571 153.033447,356.705078 157.765442,355.714111 
	C156.062698,357.355164 154.100327,358.756073 152.032959,359.979523 
	C149.125931,361.699860 146.410797,361.642059 144.069504,358.374878 
z"/>
<path fill="#000000" opacity="0.000000" stroke="none" 
	d="
M207.359497,380.926331 
	C209.167389,376.909363 211.292709,372.745178 213.744675,368.814819 
	C211.939850,372.958801 209.808380,376.868958 207.359497,380.926331 
z"/>
<path fill="#000000" opacity="0.000000" stroke="none" 
	d="
M223.368149,352.378784 
	C225.173996,348.274597 227.307007,344.416077 229.754486,340.804077 
	C227.944412,344.908539 225.819855,348.766510 223.368149,352.378784 
z"/>
<path fill="#000000" opacity="0.000000" stroke="none" 
	d="
M279.548157,357.551270 
	C281.508118,360.321533 283.256317,363.256714 285.045593,366.555115 
	C285.086639,366.918304 284.852539,367.128082 284.451843,367.198181 
	C282.342102,364.198853 280.633087,361.129364 278.924042,358.059906 
	C279.061493,357.945343 279.198944,357.830780 279.548157,357.551270 
z"/>
<path fill="#000000" opacity="0.000000" stroke="none" 
	d="
M213.911133,399.918030 
	C215.032623,397.679718 216.154099,395.441406 217.593201,393.060455 
	C218.031555,393.034363 218.152283,393.150879 218.266174,393.711884 
	C217.060562,396.319244 215.861801,398.482117 214.475128,400.463196 
	C214.161850,400.160248 214.036484,400.039154 213.911133,399.918030 
z"/>
<path fill="#000000" opacity="0.000000" stroke="none" 
	d="
M210.101181,407.095459 
	C211.031570,404.676056 212.153839,402.439758 213.593613,400.060730 
	C214.036484,400.039154 214.161850,400.160248 214.275513,400.721313 
	C213.068237,403.322327 211.872650,405.483368 210.677094,407.644440 
	C210.549088,407.522461 210.421066,407.400513 210.101181,407.095459 
z"/>
<path fill="#000000" opacity="0.000000" stroke="none" 
	d="
M188.581207,355.969543 
	C188.405807,356.712158 187.874481,357.481720 186.818649,358.626160 
	C185.088028,359.562286 183.881927,360.123535 182.675812,360.684814 
	C182.550247,360.557343 182.424698,360.429901 182.110901,360.111084 
	C184.023544,358.612000 186.124420,357.304260 188.581207,355.969543 
z"/>
<path fill="#000000" opacity="0.000000" stroke="none" 
	d="
M199.416504,332.037659 
	C200.824341,330.731903 202.601959,329.391754 204.756958,328.045593 
	C203.351669,329.360779 201.568985,330.682007 199.416504,332.037659 
z"/>
<path fill="#000000" opacity="0.000000" stroke="none" 
	d="
M214.389008,368.927307 
	C214.846146,366.798279 215.641449,364.526672 216.781281,362.128571 
	C216.326263,364.262970 215.526718,366.523834 214.389008,368.927307 
z"/>
<path fill="#000000" opacity="0.000000" stroke="none" 
	d="
M191.368561,408.926575 
	C192.166824,406.583160 193.283463,404.094849 194.736847,401.827057 
	C193.944717,404.292297 192.815826,406.536987 191.368561,408.926575 
z"/>
<path fill="#000000" opacity="0.000000" stroke="none" 
	d="
M195.380310,401.913269 
	C195.848190,399.798126 196.644409,397.525757 197.785767,395.128204 
	C197.323471,397.253998 196.516068,399.505005 195.380310,401.913269 
z"/>
<path fill="#000000" opacity="0.000000" stroke="none" 
	d="
M194.393692,335.045166 
	C195.494812,333.909027 196.943817,332.742554 198.732422,331.811584 
	C197.628571,333.036316 196.185074,334.025574 194.393692,335.045166 
z"/>
<path fill="#000000" opacity="0.000000" stroke="none" 
	d="
M295.048706,353.365540 
	C296.096649,354.495270 297.268738,355.949127 298.194824,357.737061 
	C297.023468,356.610626 296.098175,355.150177 295.048706,353.365540 
z"/>
<path fill="#000000" opacity="0.000000" stroke="none" 
	d="
M293.053986,317.374023 
	C294.741272,317.825226 296.553711,318.598724 298.161255,319.723938 
	C296.363953,319.282532 294.771545,318.489441 293.053986,317.374023 
z"/>
<path fill="#000000" opacity="0.000000" stroke="none" 
	d="
M208.427002,327.036560 
	C209.155563,326.065643 210.261841,325.059540 211.751724,324.045715 
	C211.025131,325.025757 209.914917,326.013580 208.427002,327.036560 
z"/>
<path fill="#000000" opacity="0.000000" stroke="none" 
	d="
M204.360367,385.936493 
	C204.823120,384.258301 205.597916,382.443848 206.723816,380.834503 
	C206.274109,382.626495 205.473251,384.213348 204.360367,385.936493 
z"/>
<path fill="#000000" opacity="0.000000" stroke="none" 
	d="
M219.361328,359.934937 
	C219.824524,358.257446 220.599030,356.442932 221.724335,354.834900 
	C221.274323,356.626862 220.473480,358.212402 219.361328,359.934937 
z"/>
<path fill="#000000" opacity="0.000000" stroke="none" 
	d="
M298.054565,320.370667 
	C299.381165,320.464111 300.838623,320.885681 302.130249,321.693970 
	C300.704742,321.620087 299.445099,321.159424 298.054565,320.370667 
z"/>
<path fill="#000000" opacity="0.000000" stroke="none" 
	d="
M222.689362,336.597687 
	C221.368027,337.786194 219.729248,338.696533 217.769135,339.306122 
	C219.089157,338.110077 220.730530,337.214783 222.689362,336.597687 
z"/>
<path fill="#000000" opacity="0.000000" stroke="none" 
	d="
M245.256439,345.367706 
	C245.938309,343.984192 246.620209,342.600708 247.606689,341.068085 
	C248.035004,341.040009 248.158752,341.161102 248.291550,341.707458 
	C247.558929,343.442841 246.817276,344.752930 245.876617,345.882324 
	C245.537247,345.590363 245.396835,345.479034 245.256439,345.367706 
z"/>
<path fill="#000000" opacity="0.000000" stroke="none" 
	d="
M237.255432,359.363861 
	C237.786346,358.142578 238.317261,356.921295 239.279541,355.684174 
	C239.833221,355.800110 239.955536,355.931915 240.031799,356.395142 
	C239.347641,357.837555 238.709564,358.948578 237.873810,359.878235 
	C237.535904,359.585815 237.395676,359.474823 237.255432,359.363861 
z"/>
<path fill="#000000" opacity="0.000000" stroke="none" 
	d="
M193.713577,353.574707 
	C192.514328,354.734222 191.029068,355.601868 189.238281,356.208252 
	C190.431030,355.058929 191.929306,354.170898 193.713577,353.574707 
z"/>
<path fill="#000000" opacity="0.000000" stroke="none" 
	d="
M200.389923,392.898071 
	C200.513367,391.469269 200.972061,389.870972 201.781525,388.134918 
	C201.663239,389.574280 201.194199,391.151428 200.389923,392.898071 
z"/>
<path fill="#000000" opacity="0.000000" stroke="none" 
	d="
M195.558380,351.964050 
	C195.516830,352.603668 195.083740,353.279022 194.255737,353.956482 
	C194.296158,353.305634 194.731476,352.652740 195.558380,351.964050 
z"/>
<path fill="#000000" opacity="0.000000" stroke="none" 
	d="
M244.042267,348.029572 
	C244.288147,347.279327 244.534027,346.529083 245.018173,345.573303 
	C245.396835,345.479034 245.537247,345.590363 245.822021,346.215881 
	C245.298248,347.141235 244.630096,347.552368 243.981812,347.980347 
	C244.001648,347.997131 244.042282,348.029572 244.042267,348.029572 
z"/>
<path fill="#000000" opacity="0.000000" stroke="none" 
	d="
M198.342957,395.402710 
	C198.499527,394.287170 198.959778,393.435394 199.745743,392.816589 
	C199.596512,393.921875 199.121567,394.794159 198.342957,395.402710 
z"/>
<path fill="#000000" opacity="0.000000" stroke="none" 
	d="
M224.556854,334.966187 
	C224.517685,335.598328 224.084915,336.267731 223.257965,336.951538 
	C223.296967,336.311737 223.730118,335.657562 224.556854,334.966187 
z"/>
<path fill="#000000" opacity="0.000000" stroke="none" 
	d="
M202.340729,388.404419 
	C202.499130,387.285919 202.960480,386.433136 203.746506,385.815399 
	C203.595337,386.923676 203.119492,387.796875 202.340729,388.404419 
z"/>
<path fill="#000000" opacity="0.000000" stroke="none" 
	d="
M240.911346,352.921051 
	C241.237091,352.172699 241.562836,351.424316 242.299713,350.673279 
	C242.832550,350.801239 242.954285,350.931854 243.029480,351.373871 
	C242.545181,352.332001 242.107391,352.978729 241.480103,353.449280 
	C241.164200,353.155762 241.037766,353.038391 240.911346,352.921051 
z"/>
<path fill="#000000" opacity="0.000000" stroke="none" 
	d="
M189.338898,411.407654 
	C189.498306,410.286652 189.959442,409.434692 190.745987,408.816528 
	C190.594467,409.925751 190.117538,410.801239 189.338898,411.407654 
z"/>
<path fill="#000000" opacity="0.000000" stroke="none" 
	d="
M236.092682,362.095978 
	C236.204819,361.193878 236.497986,360.475525 237.023285,359.560516 
	C237.395676,359.474823 237.535904,359.585815 237.827515,360.193970 
	C237.531097,361.343231 237.083328,361.995331 236.635559,362.647430 
	C236.514938,362.524841 236.394333,362.402283 236.092682,362.095978 
z"/>
<path fill="#000000" opacity="0.000000" stroke="none" 
	d="
M217.338013,362.403992 
	C217.498199,361.284271 217.960602,360.432068 218.747131,359.815430 
	C218.594254,360.924500 218.117249,361.797974 217.338013,362.403992 
z"/>
<path fill="#000000" opacity="0.000000" stroke="none" 
	d="
M297.965027,358.442017 
	C298.604828,358.482819 299.281189,358.915009 299.957520,359.743347 
	C299.305511,359.704132 298.653564,359.268738 297.965027,358.442017 
z"/>
<path fill="#000000" opacity="0.000000" stroke="none" 
	d="
M212.254242,324.441101 
	C212.820557,323.587769 213.651489,323.045258 214.773315,322.780121 
	C214.215775,323.622284 213.367325,324.187103 212.254242,324.441101 
z"/>
<path fill="#000000" opacity="0.000000" stroke="none" 
	d="
M227.746429,333.558838 
	C227.178741,334.414093 226.346893,334.957642 225.225571,335.221405 
	C225.784821,334.376770 226.633530,333.811951 227.746429,333.558838 
z"/>
<path fill="#000000" opacity="0.000000" stroke="none" 
	d="
M205.255310,328.440063 
	C205.820999,327.587982 206.652100,327.045410 207.773651,326.780762 
	C207.216309,327.622314 206.368515,328.185944 205.255310,328.440063 
z"/>
<path fill="#000000" opacity="0.000000" stroke="none" 
	d="
M242.542664,350.462189 
	C242.728271,349.542755 243.082031,348.831787 243.739044,348.075195 
	C244.042282,348.029572 244.001648,347.997131 243.986801,348.326599 
	C243.673309,349.458221 243.374664,350.260345 243.076019,351.062469 
	C242.954285,350.931854 242.832550,350.801239 242.542664,350.462189 
z"/>
<path fill="#000000" opacity="0.000000" stroke="none" 
	d="
M222.405029,354.876923 
	C222.174850,354.142792 222.293442,353.221466 222.771088,352.145020 
	C223.004684,352.889801 222.879227,353.789795 222.405029,354.876923 
z"/>
<path fill="#000000" opacity="0.000000" stroke="none" 
	d="
M239.542297,355.457825 
	C239.703369,354.548187 240.033051,353.849091 240.637039,353.035522 
	C241.037766,353.038391 241.164200,353.155762 241.300415,353.677856 
	C240.899414,354.743011 240.488647,355.403381 240.077866,356.063751 
	C239.955536,355.931915 239.833221,355.800110 239.542297,355.457825 
z"/>
<path fill="#000000" opacity="0.000000" stroke="none" 
	d="
M294.070496,351.383179 
	C294.599792,351.601929 295.076385,352.123535 295.241394,352.846863 
	C294.625793,352.594391 294.321808,352.140228 294.070496,351.383179 
z"/>
<path fill="#000000" opacity="0.000000" stroke="none" 
	d="
M491.992920,246.879639 
	C486.949371,255.350861 481.945801,263.451874 476.901093,271.527191 
	C474.613708,275.188721 472.538666,279.045044 469.791077,282.331207 
	C468.377563,284.021851 465.800507,285.254211 463.570099,285.629700 
	C459.998840,286.231018 456.273956,285.862305 452.622528,286.060669 
	C448.532501,286.282898 444.455383,286.889954 440.366547,286.957275 
	C431.708710,287.099884 423.044434,287.128082 414.387482,286.960602 
	C407.294708,286.823425 400.205750,286.383423 393.123047,285.948456 
	C392.104065,285.885895 390.730499,285.373413 390.197479,284.601837 
	C385.699738,278.091278 381.109985,271.622406 377.026398,264.852386 
	C369.684631,252.680817 362.754364,240.261734 355.492096,228.041199 
	C351.992371,222.152054 355.271484,217.352966 357.890900,212.747818 
	C366.389252,197.807144 375.311340,183.108231 383.942627,168.242111 
	C387.875000,161.469147 392.825897,157.347916 401.383698,157.827805 
	C409.094971,158.260178 416.884369,157.026154 424.636078,157.072357 
	C437.409790,157.148468 450.191620,157.462585 462.945557,158.138199 
	C466.097076,158.305130 468.775116,159.870468 470.610474,163.674286 
	C473.563446,169.794312 478.474091,174.934601 481.912048,180.863174 
	C488.847595,192.823105 495.343994,205.037537 502.036194,217.138885 
	C502.887360,218.677994 503.826202,220.168610 504.886200,221.954147 
	C500.658783,230.016373 496.337494,238.257660 491.992920,246.879639 
M458.008667,243.486755 
	C465.351074,234.254715 468.166504,223.934586 464.059906,212.663544 
	C461.195984,204.803329 457.771698,197.698517 449.387909,192.902969 
	C443.101593,189.307190 437.029297,186.403549 430.184753,186.181900 
	C418.718140,185.810577 409.223328,190.444305 401.279816,199.065399 
	C391.826172,209.325348 389.559692,220.963608 394.180786,233.495193 
	C396.183594,238.926361 400.886047,243.446396 404.696930,248.106598 
	C410.369415,255.043198 418.376160,257.433899 426.862183,257.913269 
	C439.368042,258.619720 449.618286,253.790176 458.008667,243.486755 
z"/>
<path fill="#000000" opacity="0.000000" stroke="none" 
	d="
M567.167664,180.666656 
	C578.546143,187.283859 589.797791,193.372009 600.698914,200.033798 
	C607.413696,204.137299 611.282776,211.048294 614.222656,218.033615 
	C615.452454,220.955627 615.253235,225.761185 613.590515,228.356567 
	C609.914978,234.093887 605.524109,239.741486 600.272705,244.007065 
	C593.767212,249.291260 586.371948,253.691177 578.853271,257.459961 
	C570.617798,261.588043 561.796387,264.543945 553.246704,268.050659 
	C551.452637,268.786469 549.719238,269.674500 547.976501,270.530304 
	C543.783325,272.589417 541.579285,271.466705 539.989441,267.112274 
	C535.088257,253.688797 530.216858,240.245758 524.853088,227.005096 
	C523.235107,223.010956 523.418213,219.875336 525.163696,216.150635 
	C527.124939,211.965546 528.355408,207.444061 530.062256,203.131653 
	C531.238525,200.159836 532.925049,197.377136 533.956787,194.363800 
	C535.830688,188.890671 537.270508,183.269730 539.110291,177.783859 
	C540.750427,172.893341 543.468811,172.012878 548.782837,173.987183 
	C554.783020,176.216400 560.853149,178.257095 567.167664,180.666656 
z"/>
<path fill="#000000" opacity="0.000000" stroke="none" 
	d="
M461.357239,85.233360 
	C467.795654,81.167183 473.859558,77.196541 480.065094,73.461205 
	C491.342255,66.673088 503.503571,62.483967 516.751709,64.194939 
	C523.898071,65.117851 528.753906,70.539207 530.814453,77.211601 
	C532.919617,84.028465 534.439392,91.221718 534.843262,98.328194 
	C535.722046,113.789528 534.937378,129.229767 531.061768,144.362747 
	C530.823914,145.291397 531.299622,146.399078 531.076233,147.335922 
	C530.513733,149.694351 530.396667,151.991531 526.441223,151.316528 
	C510.728760,148.635208 494.924316,146.495834 479.197083,143.894669 
	C477.269043,143.575760 475.195435,142.023605 473.880829,140.461121 
	C466.790497,132.033844 460.011902,123.344345 452.925781,114.913391 
	C450.007690,111.441460 446.367035,108.568390 443.534088,105.038490 
	C442.673828,103.966568 442.663025,100.771217 443.547302,99.975479 
	C449.180481,94.906441 455.172668,90.236412 461.357239,85.233360 
z"/>
<path fill="#000000" opacity="0.000000" stroke="none" 
	d="
M402.780914,90.271690 
	C406.749878,93.585220 410.445099,96.653496 414.186951,99.663704 
	C416.559753,101.572556 416.406555,103.168633 414.262085,105.347305 
	C408.804352,110.892136 403.345428,116.470551 398.345093,122.420525 
	C393.908264,127.700066 389.992737,133.431015 386.030365,139.091003 
	C383.702423,142.416290 381.026276,143.802414 376.723175,144.212082 
	C365.583496,145.272614 354.523560,147.246109 343.467651,149.072220 
	C339.191772,149.778473 335.045288,151.275818 330.767151,151.954468 
	C329.660217,152.130081 327.317291,150.725800 327.171234,149.792343 
	C325.588409,139.674698 323.931000,129.538254 323.112640,119.341248 
	C322.475555,111.402519 322.139801,103.251106 323.241119,95.415001 
	C324.318481,87.749138 326.617523,80.018471 329.791382,72.949837 
	C333.004425,65.794052 342.029144,62.739647 349.942291,63.983467 
	C360.613983,65.660896 370.710358,69.048668 379.903717,74.558708 
	C387.721680,79.244415 395.006287,84.820000 402.780914,90.271690 
M330.760345,148.844620 
	C335.157990,148.200485 339.564636,147.608582 343.943848,146.857117 
	C344.618225,146.741394 345.524353,145.974533 345.667236,145.357010 
	C345.795959,144.800446 345.170624,143.616043 344.628021,143.427444 
	C338.975647,141.463135 333.272827,139.644058 327.006836,137.596054 
	C328.245483,141.991638 329.152252,145.209457 330.760345,148.844620 
z"/>
<path fill="#000000" opacity="0.000000" stroke="none" 
	d="
M274.335083,188.246979 
	C286.678192,183.041992 298.731995,178.105469 310.719269,173.012451 
	C314.825897,171.267670 316.777466,172.257675 318.121613,176.660065 
	C320.750946,185.271729 323.887695,193.735748 327.029846,202.180695 
	C328.790253,206.911957 330.621674,211.684692 333.079010,216.070084 
	C335.656677,220.670227 334.274078,224.649429 332.611420,228.902069 
	C328.034882,240.607758 323.542633,252.346481 319.041382,264.081421 
	C318.644897,265.115021 318.152557,266.222656 318.174896,267.286011 
	C318.252808,270.994019 316.138855,271.929932 313.171173,271.026825 
	C307.166779,269.199646 301.192596,267.228271 295.330292,264.990723 
	C288.582611,262.415314 281.617035,260.110077 275.374908,256.576660 
	C264.250732,250.279724 253.023849,243.552689 246.228821,232.276688 
	C240.102646,222.110550 241.384979,217.088425 249.692627,207.078278 
	C256.368774,199.033981 265.585846,194.240036 274.335083,188.246979 
M329.883423,215.658463 
	C324.615723,202.556671 319.348022,189.454880 313.790985,175.633438 
	C310.006378,176.718414 305.784241,177.459488 301.961761,179.120361 
	C293.476990,182.807007 285.323364,187.267944 276.791504,190.830719 
	C267.370850,194.764679 259.447357,200.763474 252.686417,208.075806 
	C248.131119,213.002594 243.194992,219.193192 246.329407,226.354416 
	C248.661240,231.681961 252.926575,236.568771 257.371948,240.463516 
	C262.982880,245.379456 269.271057,249.863953 275.950439,253.142273 
	C287.196136,258.661774 298.970642,263.107269 310.545197,267.950836 
	C313.022827,268.987671 314.659515,268.710144 315.827148,265.591675 
	C320.641174,252.734436 325.926636,240.053848 330.750732,227.200195 
	C332.052063,223.732803 333.079102,219.834518 329.883423,215.658463 
z"/>
<path fill="#000000" opacity="0.000000" stroke="none" 
	d="
M413.174805,302.996979 
	C426.543396,304.669342 439.703735,301.621765 453.793671,304.011566 
	C445.924988,312.875519 439.255920,320.563995 432.313202,327.996826 
	C431.398102,328.976532 428.216064,329.488678 427.553650,328.801239 
	C420.301575,321.274902 413.338989,313.469543 406.317383,305.722137 
	C406.130554,305.515991 406.165527,305.108734 405.868256,303.747559 
	C408.219788,303.489258 410.464661,303.242676 413.174805,302.996979 
z"/>
<path fill="#000000" opacity="0.000000" stroke="none" 
	d="
M421.663696,120.809448 
	C424.449036,118.476425 427.589050,114.262352 429.328979,114.777458 
	C432.349182,115.671577 434.566742,119.432320 437.006622,122.095627 
	C440.933380,126.381943 444.797791,130.726669 448.623993,135.103104 
	C449.980011,136.654053 451.147552,138.369797 452.962677,140.745117 
	C436.689758,140.745117 421.619873,140.745117 404.706787,140.745117 
	C410.729431,133.636978 416.058807,127.347038 421.663696,120.809448 
z"/>
<path fill="#000000" opacity="0.000000" stroke="none" 
	d="
M501.972839,182.144012 
	C498.315216,176.598511 494.576691,171.498535 491.136353,166.204773 
	C490.423920,165.108536 490.819489,163.292206 490.704407,161.807755 
	C492.750641,161.665604 494.879242,161.089355 496.828308,161.459229 
	C503.873932,162.796249 510.869965,164.404449 517.860352,166.015945 
	C519.866394,166.478409 522.002319,166.980057 523.660950,168.088715 
	C524.471008,168.630173 524.859985,170.769592 524.515808,171.905975 
	C522.849487,177.408142 520.837585,182.804642 519.012817,188.260208 
	C517.907227,191.565689 517.080811,194.975983 515.775940,198.196167 
	C515.405090,199.111542 513.795349,199.524933 512.558960,200.288864 
	C508.926117,194.177094 505.461884,188.348953 501.972839,182.144012 
z"/>
<path fill="#000000" opacity="0.000000" stroke="none" 
	d="
M521.818970,261.529846 
	C522.854492,264.984802 523.736206,268.062469 524.631714,271.136139 
	C525.304993,273.447266 525.754944,276.023346 522.697937,276.621887 
	C512.701843,278.578979 502.648834,280.247040 492.609985,281.981506 
	C491.857788,282.111481 491.044556,281.888153 489.911499,281.802826 
	C497.562561,268.673645 505.031952,255.856110 513.072632,242.058273 
	C516.142334,248.874435 518.906677,255.012665 521.818970,261.529846 
z"/>
<path fill="#000000" opacity="0.000000" stroke="none" 
	d="
M345.073364,279.001465 
	C341.819794,278.330048 339.016083,277.606323 336.186188,277.006042 
	C333.033020,276.337219 332.245789,274.256439 333.208984,271.581757 
	C336.128510,263.474609 339.151733,255.402039 342.330200,247.393646 
	C342.856995,246.066345 344.366455,245.129059 345.421814,244.011536 
	C346.282166,245.197037 347.249359,246.320068 347.985199,247.578400 
	C352.090942,254.599228 356.067078,261.696777 360.237305,268.678619 
	C362.713562,272.824371 365.465515,276.805481 368.203003,281.029633 
	C365.023956,285.132141 361.440308,281.663544 358.308502,281.521698 
	C354.013702,281.327179 349.774658,279.901611 345.073364,279.001465 
z"/>
<path fill="#000000" opacity="0.000000" stroke="none" 
	d="
M358.022339,178.982758 
	C353.786011,186.612244 349.615295,193.859131 345.444580,201.106018 
	C344.883087,201.221176 344.321564,201.336334 343.760040,201.451492 
	C340.837311,193.662903 337.899811,185.879807 335.002838,178.081650 
	C334.332336,176.276672 333.980194,174.335739 333.167145,172.605057 
	C331.471161,168.994949 332.538788,167.009308 336.374084,166.241043 
	C344.901855,164.532822 353.399536,162.661469 361.959534,161.138046 
	C363.722870,160.824234 365.704559,161.737534 367.585602,162.085220 
	C367.066345,163.678970 366.833679,165.451096 365.973724,166.832779 
	C363.480072,170.839233 360.734589,174.688934 358.022339,178.982758 
M344.215363,168.848663 
	C341.325775,168.848663 338.436188,168.848663 334.664093,168.848663 
	C337.210693,176.071594 339.241730,181.832245 341.272797,187.592911 
	C341.762482,187.582413 342.252197,187.571915 342.741882,187.561432 
	C343.398651,181.507111 344.055389,175.452789 344.215363,168.848663 
z"/>
<path fill="#000000" opacity="0.000000" stroke="none" 
	d="
M503.051758,395.629669 
	C501.669464,393.236023 500.252136,390.458984 498.945709,387.300110 
	C500.376678,389.694244 501.696716,392.470245 503.051758,395.629669 
z"/>
<path fill="#B52E33" opacity="1.000000" stroke="none" 
	d="
M240.031799,356.395142 
	C240.488647,355.403381 240.899414,354.743011 241.489899,353.854065 
	C242.107391,352.978729 242.545181,352.332001 243.029495,351.373871 
	C243.374664,350.260345 243.673309,349.458221 243.966949,348.309814 
	C244.630096,347.552368 245.298248,347.141235 246.020996,346.396545 
	C246.817276,344.752930 247.558929,343.442841 248.477051,341.889221 
	C249.667007,341.213043 250.680542,340.780426 251.758209,340.320404 
	C252.896744,347.082245 254.282501,348.110565 260.582031,347.830597 
	C263.994354,347.678894 267.547668,347.456360 270.799469,348.245728 
	C272.541931,348.668762 273.897369,351.076630 275.211609,352.757507 
	C276.405518,354.284454 277.307190,356.039917 278.630859,357.877258 
	C280.633087,361.129364 282.342102,364.198853 284.334686,367.302979 
	C286.328308,370.675720 284.558289,372.149841 281.744293,373.709503 
	C269.941406,380.251251 258.296722,387.077576 246.533005,393.690979 
	C234.505585,400.452637 222.411865,407.096497 210.320786,413.743958 
	C209.840393,414.008057 209.088120,413.777649 207.877548,413.777649 
	C208.788300,411.641266 209.528625,409.904694 210.473007,407.906281 
	C211.872650,405.483368 213.068237,403.322327 214.463440,400.903137 
	C215.861801,398.482117 217.060562,396.319244 218.447113,393.886841 
	C224.502884,383.465820 230.370834,373.314240 236.437180,362.905060 
	C237.083328,361.995331 237.531097,361.343231 238.025177,360.375366 
	C238.709564,358.948578 239.347641,357.837555 240.031799,356.395142 
z"/>
<path fill="#63DAFA" opacity="1.000000" stroke="none" 
	d="
M342.338440,380.007874 
	C347.202057,379.688171 351.612793,379.421570 356.012634,379.031891 
	C359.672516,378.707764 359.913086,381.198853 359.976715,383.747894 
	C360.062622,387.186798 359.998047,390.629486 359.998047,395.243591 
	C355.532959,395.740784 349.963501,397.133667 344.507172,396.780151 
	C337.062378,396.297882 329.751587,393.992096 324.054901,388.883148 
	C320.250580,385.471222 316.062897,382.251831 314.684753,376.569489 
	C313.612091,372.146790 310.598694,368.206207 309.435791,363.791138 
	C307.989655,358.300629 307.560242,352.542297 306.691772,346.899597 
	C307.188690,346.618805 307.685577,346.337982 308.182495,346.057159 
	C312.860748,348.609863 317.692139,350.929565 322.130890,353.846710 
	C323.605011,354.815521 324.312164,357.237244 324.954468,359.135315 
	C327.457825,366.533081 328.751007,374.655121 336.951721,378.465912 
	C338.499390,379.185120 340.233032,379.504028 342.338440,380.007874 
z"/>
<path fill="#E13238" opacity="1.000000" stroke="none" 
	d="
M182.445435,360.937592 
	C183.881927,360.123535 185.088028,359.562286 186.631012,358.936798 
	C186.989456,371.190765 186.925720,383.510010 187.075317,395.826630 
	C187.133606,400.626770 187.672287,405.421112 188.019669,410.649353 
	C186.323242,414.196869 184.798187,417.454193 182.750336,420.340576 
	C182.160202,421.172363 179.705475,421.611145 178.715469,421.084259 
	C169.724594,416.298920 160.868912,411.259583 151.928162,406.269165 
	C153.700897,402.151978 155.963867,398.483246 156.814438,394.511963 
	C157.836731,389.738739 158.047928,384.693604 157.867081,379.793640 
	C157.735092,376.217743 159.265900,374.519958 162.038239,372.957031 
	C168.819717,369.133911 175.496277,365.124664 182.445435,360.937592 
z"/>
<path fill="#62DAFB" opacity="1.000000" stroke="none" 
	d="
M457.749664,243.746399 
	C449.618286,253.790176 439.368042,258.619720 426.862183,257.913269 
	C418.376160,257.433899 410.369415,255.043198 404.696930,248.106598 
	C400.886047,243.446396 396.183594,238.926361 394.180786,233.495193 
	C389.559692,220.963608 391.826172,209.325348 401.279816,199.065399 
	C409.223328,190.444305 418.718140,185.810577 430.184753,186.181900 
	C437.029297,186.403549 443.101593,189.307190 449.387909,192.902969 
	C457.771698,197.698517 461.195984,204.803329 464.059906,212.663544 
	C468.166504,223.934586 465.351074,234.254715 457.749664,243.746399 
z"/>
<path fill="#B32F33" opacity="1.000000" stroke="none" 
	d="
M330.409668,148.635956 
	C329.152252,145.209457 328.245483,141.991638 327.006836,137.596054 
	C333.272827,139.644058 338.975647,141.463135 344.628021,143.427444 
	C345.170624,143.616043 345.795959,144.800446 345.667236,145.357010 
	C345.524353,145.974533 344.618225,146.741394 343.943848,146.857117 
	C339.564636,147.608582 335.157990,148.200485 330.409668,148.635956 
z"/>
<path fill="#B42E32" opacity="1.000000" stroke="none" 
	d="
M329.991150,216.036652 
	C333.079102,219.834518 332.052063,223.732803 330.750732,227.200195 
	C325.926636,240.053848 320.641174,252.734436 315.827148,265.591675 
	C314.659515,268.710144 313.022827,268.987671 310.545197,267.950836 
	C298.970642,263.107269 287.196136,258.661774 275.950439,253.142273 
	C269.271057,249.863953 262.982880,245.379456 257.371948,240.463516 
	C252.926575,236.568771 248.661240,231.681961 246.329407,226.354416 
	C243.194992,219.193192 248.131119,213.002594 252.686417,208.075806 
	C259.447357,200.763474 267.370850,194.764679 276.791504,190.830719 
	C285.323364,187.267944 293.476990,182.807007 301.961761,179.120361 
	C305.784241,177.459488 310.006378,176.718414 313.790985,175.633438 
	C319.348022,189.454880 324.615723,202.556671 329.991150,216.036652 
z"/>
<path fill="#B13033" opacity="1.000000" stroke="none" 
	d="
M344.463745,169.123566 
	C344.055389,175.452789 343.398651,181.507111 342.741882,187.561432 
	C342.252197,187.571915 341.762482,187.582413 341.272797,187.592911 
	C339.241730,181.832245 337.210693,176.071594 334.664093,168.848663 
	C338.436188,168.848663 341.325775,168.848663 344.463745,169.123566 
z"/>
</svg>